<svg width="28" height="28" viewBox="0 0 28 28" fill="none" xmlns="http://www.w3.org/2000/svg">
<path fill-rule="evenodd" clip-rule="evenodd" d="M25.5856 14.0617C25.5856 14.2857 25.4967 14.5005 25.3383 14.6589C25.1799 14.8173 24.9651 14.9063 24.7411 14.9063L4.82221 14.9062L10.1376 20.22C10.2962 20.3786 10.3853 20.5936 10.3853 20.8179C10.3853 21.0422 10.2962 21.2572 10.1376 21.4158C9.97905 21.5744 9.76397 21.6635 9.53971 21.6635C9.31545 21.6635 9.10037 21.5744 8.94179 21.4158L2.18561 14.6596C2.10696 14.5812 2.04456 14.488 2.00199 14.3854C1.95942 14.2828 1.9375 14.1728 1.9375 14.0617C1.9375 13.9506 1.95942 13.8407 2.00199 13.7381C2.04456 13.6354 2.10696 13.5423 2.18561 13.4638L8.94179 6.70763C9.02031 6.62911 9.11352 6.56682 9.21612 6.52433C9.31871 6.48183 9.42867 6.45996 9.53971 6.45996C9.76397 6.45996 9.97905 6.54905 10.1376 6.70763C10.2962 6.86621 10.3853 7.08129 10.3853 7.30555C10.3853 7.52981 10.2962 7.74489 10.1376 7.90347L4.82221 13.2172L24.7411 13.2172C24.9651 13.2172 25.1799 13.3062 25.3383 13.4646C25.4967 13.6229 25.5856 13.8377 25.5856 14.0617Z" fill="white"/>
</svg>
