<svg width="28" height="28" viewBox="0 0 28 28" fill="none" xmlns="http://www.w3.org/2000/svg">
<path fill-rule="evenodd" clip-rule="evenodd" d="M2.51788 14.3147C2.51788 14.5386 2.60686 14.7534 2.76524 14.9118C2.92362 15.0702 3.13842 15.1592 3.36241 15.1592L23.2813 15.1592L17.9659 20.4729C17.8073 20.6315 17.7182 20.8466 17.7182 21.0708C17.7182 21.2951 17.8073 21.5102 17.9659 21.6688C18.1245 21.8273 18.3395 21.9164 18.5638 21.9164C18.7881 21.9164 19.0031 21.8273 19.1617 21.6688L25.9179 14.9126C25.9966 14.8341 26.059 14.7409 26.1015 14.6383C26.1441 14.5357 26.166 14.4257 26.166 14.3147C26.166 14.2036 26.1441 14.0936 26.1015 13.991C26.059 13.8884 25.9966 13.7952 25.9179 13.7167L19.1617 6.96056C19.0832 6.88204 18.99 6.81975 18.8874 6.77726C18.7848 6.73476 18.6749 6.71289 18.5638 6.71289C18.3395 6.71289 18.1245 6.80198 17.9659 6.96056C17.8073 7.11914 17.7182 7.33422 17.7182 7.55848C17.7182 7.78274 17.8073 7.99782 17.9659 8.1564L23.2813 13.4701L3.36241 13.4701C3.13842 13.4701 2.92362 13.5591 2.76524 13.7175C2.60686 13.8759 2.51788 14.0907 2.51788 14.3147Z" fill="white"/>
</svg>
