<svg width="35" height="35" viewBox="0 0 35 35" fill="none" xmlns="http://www.w3.org/2000/svg">
<path d="M3.87598 27.2347V10.3443H30.6192V27.2347C30.6192 28.783 29.3524 30.0498 27.8041 30.0498H6.69105C5.14276 30.0498 3.87598 28.783 3.87598 27.2347Z" fill="#CFD8DC"/>
<path d="M30.6192 7.52949V11.7521H3.87598V7.52949C3.87598 5.9812 5.14276 4.71442 6.69105 4.71442H27.8041C29.3524 4.71442 30.6192 5.9812 30.6192 7.52949Z" fill="#F44336"/>
<path d="M23.581 9.64113C24.7471 9.64113 25.6923 8.69587 25.6923 7.52982C25.6923 6.36378 24.7471 5.41852 23.581 5.41852C22.415 5.41852 21.4697 6.36378 21.4697 7.52982C21.4697 8.69587 22.415 9.64113 23.581 9.64113Z" fill="#B71C1C"/>
<path d="M10.9131 9.64107C12.0791 9.64107 13.0244 8.6958 13.0244 7.52976C13.0244 6.36372 12.0791 5.41846 10.9131 5.41846C9.74702 5.41846 8.80176 6.36372 8.80176 7.52976C8.80176 8.6958 9.74702 9.64107 10.9131 9.64107Z" fill="#B71C1C"/>
<path d="M23.5804 2.60297C22.8062 2.60297 22.1729 3.23636 22.1729 4.0105V7.52935C22.1729 8.30349 22.8062 8.93688 23.5804 8.93688C24.3545 8.93688 24.9879 8.30349 24.9879 7.52935V4.0105C24.9879 3.23636 24.3545 2.60297 23.5804 2.60297Z" fill="#B0BEC5"/>
<path d="M10.9124 2.60309C10.1383 2.60309 9.50488 3.23648 9.50488 4.01063V7.52947C9.50488 8.30361 10.1383 8.93701 10.9124 8.93701C11.6866 8.93701 12.32 8.30361 12.32 7.52947V4.01063C12.32 3.23648 11.6866 2.60309 10.9124 2.60309Z" fill="#B0BEC5"/>
<path d="M9.50488 14.5669H12.32V17.382H9.50488V14.5669Z" fill="#90A4AE"/>
<path d="M13.7275 14.567H16.5426V17.382H13.7275V14.567Z" fill="#90A4AE"/>
<path d="M17.9502 14.567H20.7653V17.382H17.9502V14.567Z" fill="#90A4AE"/>
<path d="M22.1729 14.567H24.9879V17.382H22.1729V14.567Z" fill="#90A4AE"/>
<path d="M9.50488 18.7896H12.32V21.6046H9.50488V18.7896Z" fill="#90A4AE"/>
<path d="M13.7275 18.7896H16.5426V21.6046H13.7275V18.7896Z" fill="#90A4AE"/>
<path d="M17.9502 18.7896H20.7653V21.6046H17.9502V18.7896Z" fill="#90A4AE"/>
<path d="M22.1729 18.7896H24.9879V21.6046H22.1729V18.7896Z" fill="#90A4AE"/>
<path d="M9.50488 23.0121H12.32V25.8272H9.50488V23.0121Z" fill="#90A4AE"/>
<path d="M13.7275 23.0121H16.5426V25.8272H13.7275V23.0121Z" fill="#90A4AE"/>
<path d="M17.9502 23.0121H20.7653V25.8272H17.9502V23.0121Z" fill="#90A4AE"/>
<path d="M22.1729 23.0121H24.9879V25.8272H22.1729V23.0121Z" fill="#90A4AE"/>
</svg>
