<svg width="33" height="33" viewBox="0 0 33 33" fill="none" xmlns="http://www.w3.org/2000/svg">
<path d="M28.2636 2.78125H3.24069C2.82591 2.78125 2.42812 2.94053 2.13482 3.22405C1.84153 3.50756 1.67676 3.89209 1.67676 4.29305L1.67676 28.4818C1.67676 28.8828 1.84153 29.2673 2.13482 29.5508C2.42812 29.8344 2.82591 29.9936 3.24069 29.9936H16.7139V19.4715H13.0583V15.3519H16.7139V12.3283C16.7139 8.81333 18.9347 6.89712 22.1877 6.89712C23.2821 6.89403 24.3758 6.94828 25.4641 7.05964V10.7182H23.2199C21.4566 10.7182 21.1125 11.5308 21.1125 12.7213V15.3443H25.3312L24.7838 19.464H21.1125V29.9936H28.2636C28.6783 29.9936 29.0761 29.8344 29.3694 29.5508C29.6627 29.2673 29.8275 28.8828 29.8275 28.4818V4.29305C29.8275 3.89209 29.6627 3.50756 29.3694 3.22405C29.0761 2.94053 28.6783 2.78125 28.2636 2.78125V2.78125Z" fill="white"/>
</svg>
