<svg width="33" height="33" viewBox="0 0 33 33" fill="none" xmlns="http://www.w3.org/2000/svg">
<path fill-rule="evenodd" clip-rule="evenodd" d="M10.3573 1.88749C11.8983 1.81655 12.3896 1.80078 16.315 1.80078C20.2403 1.80078 20.7316 1.81786 22.2713 1.88749C23.8109 1.95711 24.8619 2.20277 25.7815 2.55879C26.7444 2.92268 27.618 3.49151 28.3406 4.22719C29.0763 4.94841 29.6438 5.82071 30.0064 6.78496C30.3637 7.70456 30.608 8.75552 30.679 10.2925C30.7499 11.8361 30.7657 12.3275 30.7657 16.2515C30.7657 20.1768 30.7486 20.6682 30.679 22.2091C30.6093 23.7462 30.3637 24.7971 30.0064 25.7167C29.6438 26.6811 29.0753 27.5548 28.3406 28.2771C27.618 29.0128 26.7444 29.5803 25.7815 29.9429C24.8619 30.3002 23.8109 30.5446 22.2739 30.6155C20.7316 30.6865 20.2403 30.7022 16.315 30.7022C12.3896 30.7022 11.8983 30.6851 10.3573 30.6155C8.8203 30.5459 7.76934 30.3002 6.84975 29.9429C5.88539 29.5803 5.01165 29.0118 4.28935 28.2771C3.55418 27.5555 2.98526 26.6821 2.62226 25.718C2.26625 24.7984 2.0219 23.7475 1.95096 22.2104C1.88002 20.6668 1.86426 20.1755 1.86426 16.2515C1.86426 12.3262 1.88134 11.8348 1.95096 10.2952C2.02059 8.75552 2.26625 7.70456 2.62226 6.78496C2.98579 5.82081 3.55515 4.94751 4.29066 4.22587C5.01194 3.49086 5.8848 2.92195 6.84844 2.55879C7.76803 2.20277 8.81899 1.95843 10.356 1.88749H10.3573ZM22.1544 4.48861C20.6305 4.41899 20.1733 4.40454 16.315 4.40454C12.4566 4.40454 11.9995 4.41899 10.4756 4.48861C9.06597 4.55299 8.30139 4.78814 7.79168 4.98651C7.11775 5.24925 6.63562 5.5606 6.12984 6.06637C5.6504 6.5328 5.28143 7.10062 5.04998 7.7282C4.85161 8.23792 4.61646 9.00249 4.55209 10.4121C4.48246 11.936 4.46801 12.3932 4.46801 16.2515C4.46801 20.1098 4.48246 20.567 4.55209 22.0909C4.61646 23.5005 4.85161 24.2651 5.04998 24.7748C5.28119 25.4014 5.65034 25.9703 6.12984 26.4366C6.59621 26.9161 7.16504 27.2853 7.79168 27.5165C8.30139 27.7149 9.06597 27.95 10.4756 28.0144C11.9995 28.084 12.4553 28.0985 16.315 28.0985C20.1746 28.0985 20.6305 28.084 22.1544 28.0144C23.564 27.95 24.3285 27.7149 24.8383 27.5165C25.5122 27.2537 25.9943 26.9424 26.5001 26.4366C26.9796 25.9703 27.3487 25.4014 27.58 24.7748C27.7783 24.2651 28.0135 23.5005 28.0778 22.0909C28.1475 20.567 28.1619 20.1098 28.1619 16.2515C28.1619 12.3932 28.1475 11.936 28.0778 10.4121C28.0135 9.00249 27.7783 8.23792 27.58 7.7282C27.3172 7.05427 27.0059 6.57215 26.5001 6.06637C26.0336 5.58696 25.4658 5.218 24.8383 4.98651C24.3285 4.78814 23.564 4.55299 22.1544 4.48861V4.48861ZM14.4692 20.7063C15.5 21.1354 16.6478 21.1933 17.7166 20.8701C18.7854 20.5469 19.7088 19.8628 20.3291 18.9344C20.9495 18.006 21.2283 16.8911 21.1179 15.78C21.0076 14.6689 20.5149 13.6306 19.724 12.8424C19.2199 12.3386 18.6103 11.9528 17.9391 11.7129C17.268 11.4729 16.552 11.3847 15.8427 11.4547C15.1334 11.5246 14.4484 11.751 13.8371 12.1175C13.2257 12.4839 12.7033 12.9814 12.3073 13.574C11.9113 14.1666 11.6516 14.8396 11.5469 15.5447C11.4422 16.2497 11.4952 16.9692 11.702 17.6513C11.9087 18.3334 12.2641 18.9612 12.7426 19.4894C13.2211 20.0177 13.8108 20.4333 14.4692 20.7063ZM11.0628 10.9993C11.7525 10.3096 12.5713 9.76247 13.4725 9.3892C14.3737 9.01592 15.3395 8.8238 16.315 8.8238C17.2904 8.8238 18.2563 9.01592 19.1574 9.3892C20.0586 9.76247 20.8774 10.3096 21.5671 10.9993C22.2569 11.689 22.804 12.5079 23.1773 13.409C23.5505 14.3102 23.7427 15.2761 23.7427 16.2515C23.7427 17.2269 23.5505 18.1928 23.1773 19.094C22.804 19.9951 22.2569 20.814 21.5671 21.5037C20.1742 22.8966 18.2849 23.6792 16.315 23.6792C14.345 23.6792 12.4558 22.8966 11.0628 21.5037C9.66983 20.1107 8.88727 18.2214 8.88727 16.2515C8.88727 14.2815 9.66983 12.3923 11.0628 10.9993V10.9993ZM25.39 9.92997C25.5609 9.76873 25.6978 9.57485 25.7924 9.35979C25.887 9.14472 25.9376 8.91286 25.941 8.67792C25.9444 8.44298 25.9007 8.20974 25.8123 7.99201C25.724 7.77428 25.5929 7.57648 25.4267 7.41034C25.2606 7.24419 25.0628 7.11307 24.8451 7.02474C24.6273 6.93641 24.3941 6.89266 24.1592 6.89608C23.9242 6.89951 23.6924 6.95004 23.4773 7.04468C23.2622 7.13932 23.0683 7.27615 22.9071 7.44707C22.5936 7.77948 22.4219 8.221 22.4285 8.67792C22.4352 9.13483 22.6197 9.57117 22.9428 9.89429C23.2659 10.2174 23.7022 10.4019 24.1592 10.4085C24.6161 10.4152 25.0576 10.2435 25.39 9.92997V9.92997Z" fill="white"/>
</svg>
