<svg width="177" height="50" viewBox="0 0 177 50" fill="none" xmlns="http://www.w3.org/2000/svg">
<g clip-path="url(#clip0_605_2008)">
<path fill-rule="evenodd" clip-rule="evenodd" d="M6.32039 22.3652L6.30762 22.3762C6.30762 22.3762 6.31674 22.3652 6.32039 22.3652Z" fill="url(#paint0_linear_605_2008)"/>
<path fill-rule="evenodd" clip-rule="evenodd" d="M6.33257 22.3497C6.33896 22.3451 6.34575 22.341 6.35284 22.3374C6.35284 22.3374 6.35284 22.3266 6.36063 22.322L6.33257 22.3497ZM6.33257 22.3497C6.33896 22.3451 6.34575 22.341 6.35284 22.3374C6.35284 22.3374 6.35284 22.3266 6.36063 22.322L6.33257 22.3497ZM6.33257 22.3497C6.33896 22.3451 6.34575 22.341 6.35284 22.3374C6.35284 22.3374 6.35284 22.3266 6.36063 22.322L6.33257 22.3497ZM6.33257 22.3497C6.33896 22.3451 6.34575 22.341 6.35284 22.3374C6.35284 22.3374 6.35284 22.3266 6.36063 22.322L6.33257 22.3497ZM6.33257 22.3497C6.33896 22.3451 6.34575 22.341 6.35284 22.3374C6.35284 22.3374 6.35284 22.3266 6.36063 22.322L6.33257 22.3497ZM17.7482 16.6859C13.2678 19.9828 10.1267 24.7558 8.89189 30.1431C11.9919 30.4702 14.9542 31.5829 17.4926 33.3736C19.5938 30.5991 22.4633 28.487 25.7534 27.2934C24.1859 23.0618 21.4037 19.3752 17.7482 16.6859ZM6.33257 22.3497C6.33896 22.3451 6.34575 22.341 6.35284 22.3374C6.35284 22.3374 6.35284 22.3266 6.36063 22.322L6.33257 22.3497ZM6.33257 22.3497C6.33896 22.3451 6.34575 22.341 6.35284 22.3374C6.35284 22.3374 6.35284 22.3266 6.36063 22.322L6.33257 22.3497ZM6.33257 22.3497C6.33896 22.3451 6.34575 22.341 6.35284 22.3374C6.35284 22.3374 6.35284 22.3266 6.36063 22.322L6.33257 22.3497ZM6.33257 22.3497C6.33896 22.3451 6.34575 22.341 6.35284 22.3374C6.35284 22.3374 6.35284 22.3266 6.36063 22.322L6.33257 22.3497ZM6.33257 22.3497C6.33896 22.3451 6.34575 22.341 6.35284 22.3374C6.35284 22.3374 6.35284 22.3266 6.36063 22.322L6.33257 22.3497ZM6.33257 22.3497C6.33896 22.3451 6.34575 22.341 6.35284 22.3374C6.35284 22.3374 6.35284 22.3266 6.36063 22.322L6.33257 22.3497ZM6.33257 22.3497C6.33896 22.3451 6.34575 22.341 6.35284 22.3374C6.35284 22.3374 6.35284 22.3266 6.36063 22.322L6.33257 22.3497ZM30.1941 21.0437L17.3336 0.898773L4.4731 21.0437C3.07185 23.5101 2.02277 26.1567 1.35578 28.9079C1.18017 29.6419 1.03782 30.3543 0.928711 31.0452C2.86113 30.3779 4.89373 30.0392 6.94045 30.0429C7.0028 30.0429 7.0667 30.0429 7.12905 30.0429C8.45734 23.9203 12.0707 18.5185 17.2478 14.9157L17.7482 14.5672L18.2501 14.9157C22.4653 17.8468 25.6685 21.9883 27.4259 26.78C28.9022 26.4023 30.4212 26.2122 31.946 26.214C32.1424 26.214 32.3403 26.214 32.5398 26.2248C31.9178 24.4312 31.1327 22.697 30.1941 21.0437ZM12.9537 12.6705C12.3163 13.8039 11.6632 14.8864 10.9961 15.9411C10.329 16.9959 9.64628 18.0151 8.88877 19.0745C8.5069 19.6096 8.10944 20.1539 7.68081 20.7137C7.46104 21.0005 7.2366 21.2888 7.00124 21.5834C6.88434 21.7376 6.75965 21.8918 6.63651 22.0367L6.44792 22.2696L6.40583 22.3204V22.3282C6.39815 22.3431 6.38873 22.357 6.37778 22.3698C6.37778 22.3698 6.37778 22.3698 6.36531 22.3837C6.34253 22.4088 6.31499 22.4292 6.28426 22.4438C6.27179 22.4438 6.26867 22.433 6.27179 22.4315V22.4083V22.3698L6.30608 22.2156C6.33881 22.1092 6.37154 22.0013 6.41362 21.8841C6.49156 21.6558 6.59131 21.4137 6.69574 21.1624C6.9124 20.6504 7.17893 20.0999 7.47507 19.5309C8.08295 18.3513 8.81552 17.1038 9.62758 15.8301C10.4396 14.5564 11.325 13.2503 12.2492 12.0105C12.7044 11.4045 13.1626 10.8124 13.624 10.2573C14.045 9.74023 14.4957 9.24752 14.9738 8.78155C14.2833 10.2434 13.6162 11.4893 12.9537 12.6705ZM6.35284 22.3328C6.35284 22.3328 6.35284 22.322 6.36063 22.3174L6.33257 22.3467C6.3389 22.3414 6.34568 22.3368 6.35284 22.3328ZM32.6708 29.1177C32.5788 28.7291 32.4759 28.3466 32.359 27.9519H31.9273C30.5873 27.9508 29.2522 28.114 27.9527 28.4376C27.6721 28.507 27.3947 28.5826 27.1204 28.6674C26.8461 28.7522 26.5608 28.8463 26.2865 28.948C23.3249 30.0347 20.7444 31.946 18.8564 34.4515C21.3943 36.6174 23.2814 39.4317 24.3117 42.5872C24.4099 42.8817 24.4972 43.1793 24.5767 43.48C24.6561 43.7807 24.7325 44.0968 24.7995 44.4052C25.0126 45.4129 25.1373 46.4371 25.1721 47.4661C27.2463 46.5782 29.0698 45.2024 30.484 43.4584C33.3129 39.921 34.0704 34.9588 32.6708 29.1177ZM6.32946 22.3575C6.33585 22.3528 6.34263 22.3487 6.34972 22.3451C6.34972 22.3451 6.34972 22.3343 6.35751 22.3297L6.32946 22.3575ZM23.2269 45.463C23.177 45.1546 23.1178 44.8508 23.0492 44.5517C22.9806 44.2525 22.9058 43.9575 22.8247 43.6666C21.9639 40.6616 20.2509 37.9636 17.8885 35.8917C17.6671 35.6954 17.44 35.5062 17.2073 35.3243C16.9813 35.1454 16.7491 34.9727 16.5137 34.8061C14.1728 33.1465 11.4309 32.1269 8.56457 31.8501C8.27466 31.8208 7.98319 31.7992 7.69017 31.7884C7.44078 31.7761 7.18984 31.7699 6.93733 31.7699H6.81576C5.11723 31.7792 3.43043 32.0492 1.81559 32.5702C1.35734 37.2502 2.43905 41.0945 5.05136 44.0027C7.31141 46.5239 10.6625 48.1878 14.5108 48.7568C14.8226 48.8041 15.1343 48.8431 15.446 48.874C15.7578 48.9063 16.0695 48.931 16.3812 48.9464C16.4113 48.948 16.4415 48.948 16.4716 48.9464C16.534 48.9464 16.5963 48.9464 16.6602 48.9557L17.0109 48.968L17.3227 49.1793L17.6188 48.9742C17.7529 48.9742 17.8869 48.9742 18.0209 48.9742H18.1332L18.367 48.9665C18.4776 48.9665 18.5883 48.9572 18.6974 48.951C18.8065 48.9449 18.9577 48.9325 19.0871 48.9233H19.1479C20.6063 48.8126 22.0473 48.5389 23.4435 48.1076C23.4441 47.2217 23.3717 46.3372 23.2269 45.463ZM6.33257 22.3497C6.33896 22.3451 6.34575 22.341 6.35284 22.3374C6.35284 22.3374 6.35284 22.3266 6.36063 22.322L6.33257 22.3497ZM6.33257 22.3497C6.33896 22.3451 6.34575 22.341 6.35284 22.3374C6.35284 22.3374 6.35284 22.3266 6.36063 22.322L6.33257 22.3497ZM6.33257 22.3497C6.33896 22.3451 6.34575 22.341 6.35284 22.3374C6.35284 22.3374 6.35284 22.3266 6.36063 22.322L6.33257 22.3497ZM6.33257 22.3497C6.33896 22.3451 6.34575 22.341 6.35284 22.3374C6.35284 22.3374 6.35284 22.3266 6.36063 22.322L6.33257 22.3497ZM6.33257 22.3497C6.33896 22.3451 6.34575 22.341 6.35284 22.3374C6.35284 22.3374 6.35284 22.3266 6.36063 22.322L6.33257 22.3497ZM6.33257 22.3497C6.33896 22.3451 6.34575 22.341 6.35284 22.3374C6.35284 22.3374 6.35284 22.3266 6.36063 22.322L6.33257 22.3497ZM6.33257 22.3497C6.33896 22.3451 6.34575 22.341 6.35284 22.3374C6.35284 22.3374 6.35284 22.3266 6.36063 22.322L6.33257 22.3497ZM6.33257 22.3497C6.33896 22.3451 6.34575 22.341 6.35284 22.3374C6.35284 22.3374 6.35284 22.3266 6.36063 22.322L6.33257 22.3497ZM6.33257 22.3497C6.33896 22.3451 6.34575 22.341 6.35284 22.3374C6.35284 22.3374 6.35284 22.3266 6.36063 22.322L6.33257 22.3497Z" fill="url(#paint1_linear_605_2008)"/>
<path fill-rule="evenodd" clip-rule="evenodd" d="M13.6243 10.2573C13.1567 10.8125 12.7046 11.4046 12.2495 12.0106C11.3252 13.2442 10.4508 14.5364 9.6263 15.8302C8.80177 17.1239 8.08167 18.356 7.47379 19.531C7.18076 20.1 6.91423 20.6505 6.69446 21.1624C6.59003 21.4138 6.49028 21.6559 6.41235 21.8841C6.37026 22.0013 6.33753 22.1092 6.3048 22.2156L6.27051 22.3698V22.4084V22.4315C6.27051 22.4315 6.27051 22.4454 6.28298 22.4439C6.31371 22.4292 6.34126 22.4088 6.36403 22.3837C6.37494 22.3745 6.37182 22.3745 6.3765 22.3698C6.38745 22.357 6.39687 22.3432 6.40455 22.3282V22.3205L6.44664 22.2696L6.63523 22.0368C6.75837 21.8826 6.88306 21.7284 6.99996 21.5834C7.23532 21.2889 7.45976 21.0005 7.67953 20.7137C8.10816 20.1524 8.50562 19.6096 8.88749 19.0746C9.645 18.0198 10.337 16.9836 10.9948 15.9412C11.6526 14.8988 12.315 13.804 12.9525 12.6706C13.6149 11.4894 14.282 10.2434 14.9787 8.78162C14.4991 9.24744 14.0468 9.74016 13.6243 10.2573ZM6.35312 22.3328C6.34602 22.3364 6.33924 22.3405 6.33285 22.3452L6.36091 22.3159C6.36091 22.3159 6.35623 22.3328 6.35312 22.3328Z" fill="white"/>
<path d="M6.36129 22.3206L6.35344 22.3364C6.34629 22.34 6.33945 22.3443 6.33301 22.349L6.36129 22.3206Z" fill="white"/>
<path fill-rule="evenodd" clip-rule="evenodd" d="M25.7552 27.2936C22.465 28.4871 19.5954 30.5992 17.4943 33.3738C14.9559 31.583 11.9936 30.4703 8.89355 30.1433C10.1283 24.7559 13.2695 19.9829 17.7499 16.6861C21.4053 19.3754 24.1876 23.062 25.7552 27.2936Z" fill="url(#paint2_linear_605_2008)"/>
<path fill-rule="evenodd" clip-rule="evenodd" d="M22.8246 43.6621C22.9088 43.9531 22.9836 44.2481 23.049 44.5473C21.4234 45.5943 19.4766 46.6274 17.321 48.1263C16.844 47.7952 16.3821 47.4868 15.9353 47.2011C15.5945 46.977 15.2625 46.7636 14.9393 46.5611C14.6104 46.3514 14.2925 46.1525 13.9839 45.9582C9.80666 43.3368 7.4375 41.7747 7.4375 35.2427C7.43724 34.0875 7.52109 32.9336 7.68844 31.7902C7.98147 31.801 8.27294 31.8226 8.56285 31.8519C11.4292 32.1286 14.1711 33.1482 16.512 34.8079C16.7474 34.9744 16.9796 35.1471 17.2056 35.326C17.4316 35.5049 17.6732 35.6976 17.8868 35.8935C20.2488 37.9635 21.9622 40.6592 22.8246 43.6621Z" fill="url(#paint3_linear_605_2008)"/>
<path fill-rule="evenodd" clip-rule="evenodd" d="M28.0492 35.2364C28.0492 39.6003 26.7462 41.7437 24.5718 43.4677C24.4923 43.167 24.4051 42.8694 24.3069 42.5749C23.2767 39.4195 21.3895 36.6051 18.8516 34.4392C20.7396 31.9337 23.3201 30.0224 26.2817 28.9358C26.556 28.834 26.8334 28.7415 27.1156 28.6551C27.7345 30.7953 28.0487 33.0104 28.0492 35.2364Z" fill="url(#paint4_linear_605_2008)"/>
<path d="M23.0494 44.547C22.9839 44.2479 22.9091 43.9528 22.8249 43.6619C22.1687 44.0937 21.4408 44.5285 20.6428 45.0019C19.6344 45.6033 18.5075 46.2756 17.3198 47.0775C16.7742 46.7074 16.249 46.3651 15.7487 46.0459C15.4245 45.8402 15.1127 45.6423 14.8135 45.4522L14.5968 45.3088L13.9032 44.8724C10.1811 42.5147 8.31543 41.0174 8.31543 35.2302C8.31538 34.0948 8.39978 32.9608 8.56793 31.8378C8.27802 31.8085 7.98655 31.7869 7.69352 31.7761C7.44414 31.7637 7.19319 31.7576 6.94069 31.7576H6.81912C6.65419 32.9068 6.57138 34.0663 6.57129 35.2271C6.57129 42.3065 9.39246 44.0783 13.6616 46.7614L14.1401 47.0621C14.4659 47.2687 14.8041 47.483 15.1548 47.7097C15.5055 47.9364 15.864 48.1723 16.2334 48.4221C16.4267 48.5517 16.6221 48.6852 16.8194 48.8231L17.0158 48.9603L17.3275 49.1715L17.6237 48.9665L17.8294 48.8246C19.1527 47.8994 20.4277 47.1423 21.5515 46.4715C22.136 46.123 22.6987 45.7884 23.2333 45.4507C23.1794 45.1504 23.118 44.8493 23.0494 44.547ZM27.9607 28.4253C27.6802 28.4947 27.4027 28.5702 27.1284 28.655C26.8541 28.7399 26.5688 28.8339 26.2945 28.9357C26.884 30.985 27.1829 33.1056 27.1829 35.2364C27.1829 39.0806 26.1854 41.002 24.3119 42.5748C24.4101 42.8693 24.4974 43.1669 24.5769 43.4676C24.6564 43.7683 24.7327 44.0844 24.7998 44.3928C27.3123 42.5131 28.9271 40.177 28.9271 35.2364C28.9274 32.9324 28.6021 30.6399 27.9607 28.4253Z" fill="white"/>
<path d="M23.227 45.4629C23.3699 46.3295 23.4419 47.2062 23.4421 48.0844C22.0459 48.5157 20.6049 48.7894 19.1464 48.9001H19.0857C18.9563 48.9093 18.8269 48.9201 18.696 48.9278C18.5651 48.9356 18.4762 48.9402 18.3656 48.9433L18.1318 48.951H18.0195C17.8855 48.951 17.7514 48.951 17.6174 48.951L17.3213 49.1561L17.0095 48.9448L16.6588 48.9325C16.5949 48.9325 16.5326 48.9325 16.4702 48.9232C16.4401 48.9248 16.4099 48.9248 16.3798 48.9232C16.0681 48.9078 15.7563 48.8831 15.4446 48.8507C15.3324 48.4723 15.2337 48.0884 15.1485 47.6989C15.0627 47.3149 14.9926 46.9279 14.9334 46.5346C14.8793 46.1707 14.8373 45.8031 14.8071 45.4321C14.7697 44.9766 14.751 44.514 14.751 44.0443C14.7461 40.9609 15.5934 37.9348 17.2012 35.2933C17.4339 35.4753 17.661 35.6644 17.8824 35.8608C20.2448 37.9325 21.9578 40.6307 22.8186 43.6356C22.9028 43.9265 22.9776 44.2216 23.0431 44.5208C23.1085 44.8199 23.1698 45.1339 23.227 45.4629Z" fill="url(#paint5_linear_605_2008)"/>
<path d="M30.484 43.4584C29.068 45.1969 27.2445 46.5671 25.1721 47.4507C25.1374 46.4217 25.0127 45.3975 24.7996 44.3898C24.7341 44.0814 24.6598 43.773 24.5767 43.4646C24.4972 43.1639 24.4099 42.8663 24.3117 42.5718C23.2815 39.4163 21.3943 36.602 18.8564 34.4361C20.7443 31.9306 23.3248 30.0193 26.2866 28.9326C26.5609 28.8309 26.8383 28.7383 27.1204 28.652C27.4026 28.5656 27.6722 28.4978 27.9528 28.4222C29.2522 28.0986 30.5872 27.9354 31.9273 27.9365H32.3591C32.4682 28.3235 32.5711 28.7075 32.6708 29.1023C34.0705 34.9588 33.313 39.921 30.484 43.4584Z" fill="url(#paint6_linear_605_2008)"/>
<path d="M15.9354 47.1948C15.8595 46.8134 15.7982 46.4304 15.7515 46.046C15.6704 45.3921 15.6298 44.734 15.6299 44.0753C15.6258 41.1963 16.406 38.3693 17.8884 35.8918C17.6671 35.6955 17.44 35.5063 17.2073 35.3243C16.9813 35.1455 16.749 34.9727 16.5137 34.8062C14.7914 37.5974 13.882 40.8051 13.8858 44.0753C13.8858 44.3451 13.8858 44.615 13.9029 44.8833C13.9206 45.243 13.9476 45.6029 13.9839 45.9627C14.0245 46.3379 14.0764 46.711 14.1398 47.0822C14.2365 47.6497 14.3611 48.2105 14.5139 48.7645C14.8256 48.8119 15.1374 48.8509 15.4491 48.8817C15.7608 48.9141 16.0726 48.9388 16.3843 48.9542C16.3297 48.7846 16.2783 48.6134 16.2284 48.4423C16.1162 48.0228 16.018 47.6111 15.9354 47.1948ZM17.6172 48.9742H17.5408H17.1434H17.0171L17.3288 49.1855L17.625 48.9804C17.759 48.9804 17.8931 48.9804 18.0271 48.9804C17.8879 48.9773 17.7512 48.9753 17.6172 48.9742Z" fill="white"/>
<path fill-rule="evenodd" clip-rule="evenodd" d="M23.442 48.0844C22.0459 48.5157 20.6048 48.7894 19.1464 48.9001H19.0856C18.9562 48.9094 18.8269 48.9202 18.6959 48.9279C18.565 48.9356 18.4762 48.9402 18.3655 48.9433L18.1317 48.951H18.0195C17.8854 48.951 17.7514 48.951 17.6173 48.951L17.3212 49.1561L17.0095 48.9449L16.6588 48.9325C16.5949 48.9325 16.5325 48.9325 16.4702 48.9233C16.4401 48.9248 16.4099 48.9248 16.3798 48.9233C16.0681 48.9078 15.7564 48.8832 15.4446 48.8508C15.1329 48.82 14.8212 48.7809 14.5094 48.7336C10.6596 48.1646 7.31 46.5008 5.04994 43.9796C2.44699 41.0914 1.3606 37.2471 1.81885 32.5671C3.43371 32.0461 5.12049 31.7762 6.81902 31.7668H6.94059C7.1931 31.7668 7.44404 31.773 7.69343 31.7853C7.98645 31.7961 8.27792 31.8177 8.56783 31.847C11.4342 32.1238 14.1761 33.1434 16.5169 34.803C16.7523 34.9696 16.9845 35.1423 17.2105 35.3212C17.4365 35.5 17.6781 35.6928 17.8917 35.8886C20.2541 37.9605 21.9672 40.6585 22.8279 43.6635C22.9121 43.9544 22.9869 44.2494 23.0524 44.5486C23.1178 44.8477 23.1771 45.1515 23.2301 45.4599C23.3722 46.3277 23.4431 47.2053 23.442 48.0844Z" fill="url(#paint7_linear_605_2008)"/>
<path d="M17.5413 48.9759H17.1438H17.0176L17.3293 49.1871L17.6255 48.982L17.5413 48.9759Z" fill="white"/>
<path d="M70.8544 21.7933V41.7624H44.9316V21.7933H48.6225V38.6244H56.062V21.7933H59.7529V38.6244H67.1635V21.7933H70.8544ZM76.1221 26.5288H79.7265V36.5704L88.2328 26.5288H91.5201V41.7624H87.9157V31.7208L79.4381 41.7624H76.1221V26.5288ZM111.132 26.5288V41.7624H107.557V29.5527H99.973V41.7624H96.3686V26.5288H111.132ZM121.734 26.3576C124.002 26.3576 125.732 26.8997 126.924 27.9837C128.135 29.0488 128.741 30.6653 128.741 32.8333V41.7624H125.338V39.9081C124.896 40.5738 124.262 41.0873 123.435 41.4486C122.628 41.7909 121.647 41.9621 120.494 41.9621C119.341 41.9621 118.331 41.7719 117.466 41.3915C116.601 40.9921 115.928 40.4501 115.448 39.7655C114.986 39.0618 114.756 38.2725 114.756 37.3977C114.756 36.0284 115.265 34.9348 116.284 34.1171C117.322 33.2802 118.946 32.8619 121.157 32.8619H125.136V32.6336C125.136 31.5686 124.81 30.7508 124.156 30.1803C123.522 29.6098 122.57 29.3245 121.301 29.3245C120.436 29.3245 119.581 29.4576 118.735 29.7239C117.908 29.9902 117.207 30.361 116.63 30.8364L115.217 28.2404C116.024 27.6318 116.995 27.166 118.129 26.8426C119.264 26.5192 120.465 26.3576 121.734 26.3576ZM121.244 39.3661C122.147 39.3661 122.945 39.1664 123.637 38.767C124.348 38.3487 124.848 37.759 125.136 36.9983V35.2296H121.417C119.341 35.2296 118.302 35.9047 118.302 37.2551C118.302 37.9016 118.562 38.4151 119.081 38.7955C119.6 39.176 120.321 39.3661 121.244 39.3661ZM150.859 42.0476C148.821 42.0476 146.976 41.6102 145.322 40.7354C143.688 39.8415 142.4 38.6148 141.458 37.0554C140.536 35.4959 140.074 33.7366 140.074 31.7778C140.074 29.819 140.545 28.0597 141.487 26.5003C142.429 24.9408 143.717 23.7236 145.351 22.8488C147.004 21.9549 148.85 21.508 150.888 21.508C152.541 21.508 154.05 21.7933 155.415 22.3638C156.779 22.9344 157.933 23.7617 158.875 24.8457L156.453 27.0994C154.992 25.5399 153.194 24.7601 151.061 24.7601C149.676 24.7601 148.437 25.0644 147.341 25.673C146.245 26.2625 145.39 27.0898 144.775 28.1549C144.159 29.2199 143.852 30.4275 143.852 31.7778C143.852 33.1282 144.159 34.3357 144.775 35.4008C145.39 36.4659 146.245 37.3026 147.341 37.9112C148.437 38.5007 149.676 38.7955 151.061 38.7955C153.194 38.7955 154.992 38.0063 156.453 36.4278L158.875 38.71C157.933 39.794 156.77 40.6213 155.386 41.1918C154.021 41.7624 152.512 42.0476 150.859 42.0476ZM176.485 26.5288L169.276 42.989C168.602 44.6436 167.786 45.8037 166.824 46.4694C165.864 47.154 164.701 47.4964 163.336 47.4964C162.567 47.4964 161.807 47.3727 161.057 47.1255C160.307 46.8783 159.693 46.536 159.212 46.0985L160.653 43.474C160.999 43.7974 161.403 44.0541 161.864 44.2442C162.346 44.4344 162.826 44.5295 163.306 44.5295C163.941 44.5295 164.46 44.3679 164.863 44.0446C165.287 43.7212 165.671 43.1792 166.017 42.4185L166.277 41.8194L159.558 26.5288H163.306L168.15 37.7971L173.024 26.5288H176.485Z" fill="#17E269"/>
<path d="M70.8544 21.7933V41.7624H44.9316V21.7933H48.6225V38.6244H56.062V21.7933H59.7529V38.6244H67.1635V21.7933H70.8544ZM76.1221 26.5288H79.7265V36.5704L88.2328 26.5288H91.5201V41.7624H87.9157V31.7208L79.4381 41.7624H76.1221V26.5288ZM111.132 26.5288V41.7624H107.557V29.5527H99.973V41.7624H96.3686V26.5288H111.132ZM121.734 26.3576C124.002 26.3576 125.732 26.8997 126.924 27.9837C128.135 29.0488 128.741 30.6653 128.741 32.8333V41.7624H125.338V39.9081C124.896 40.5738 124.262 41.0873 123.435 41.4486C122.628 41.7909 121.647 41.9621 120.494 41.9621C119.341 41.9621 118.331 41.7719 117.466 41.3915C116.601 40.9921 115.928 40.4501 115.448 39.7655C114.986 39.0618 114.756 38.2725 114.756 37.3977C114.756 36.0284 115.265 34.9348 116.284 34.1171C117.322 33.2802 118.946 32.8619 121.157 32.8619H125.136V32.6336C125.136 31.5686 124.81 30.7508 124.156 30.1803C123.522 29.6098 122.57 29.3245 121.301 29.3245C120.436 29.3245 119.581 29.4576 118.735 29.7239C117.908 29.9902 117.207 30.361 116.63 30.8364L115.217 28.2404C116.024 27.6318 116.995 27.166 118.129 26.8426C119.264 26.5192 120.465 26.3576 121.734 26.3576ZM121.244 39.3661C122.147 39.3661 122.945 39.1664 123.637 38.767C124.348 38.3487 124.848 37.759 125.136 36.9983V35.2296H121.417C119.341 35.2296 118.302 35.9047 118.302 37.2551C118.302 37.9016 118.562 38.4151 119.081 38.7955C119.6 39.176 120.321 39.3661 121.244 39.3661ZM150.859 42.0476C148.821 42.0476 146.976 41.6102 145.322 40.7354C143.688 39.8415 142.4 38.6148 141.458 37.0554C140.536 35.4959 140.074 33.7366 140.074 31.7778C140.074 29.819 140.545 28.0597 141.487 26.5003C142.429 24.9408 143.717 23.7236 145.351 22.8488C147.004 21.9549 148.85 21.508 150.888 21.508C152.541 21.508 154.05 21.7933 155.415 22.3638C156.779 22.9344 157.933 23.7617 158.875 24.8457L156.453 27.0994C154.992 25.5399 153.194 24.7601 151.061 24.7601C149.676 24.7601 148.437 25.0644 147.341 25.673C146.245 26.2625 145.39 27.0898 144.775 28.1549C144.159 29.2199 143.852 30.4275 143.852 31.7778C143.852 33.1282 144.159 34.3357 144.775 35.4008C145.39 36.4659 146.245 37.3026 147.341 37.9112C148.437 38.5007 149.676 38.7955 151.061 38.7955C153.194 38.7955 154.992 38.0063 156.453 36.4278L158.875 38.71C157.933 39.794 156.77 40.6213 155.386 41.1918C154.021 41.7624 152.512 42.0476 150.859 42.0476ZM176.485 26.5288L169.276 42.989C168.602 44.6436 167.786 45.8037 166.824 46.4694C165.864 47.154 164.701 47.4964 163.336 47.4964C162.567 47.4964 161.807 47.3727 161.057 47.1255C160.307 46.8783 159.693 46.536 159.212 46.0985L160.653 43.474C160.999 43.7974 161.403 44.0541 161.864 44.2442C162.346 44.4344 162.826 44.5295 163.306 44.5295C163.941 44.5295 164.46 44.3679 164.863 44.0446C165.287 43.7212 165.671 43.1792 166.017 42.4185L166.277 41.8194L159.558 26.5288H163.306L168.15 37.7971L173.024 26.5288H176.485Z" fill="url(#paint8_linear_605_2008)"/>
<path d="M70.8544 21.7933V41.7624H44.9316V21.7933H48.6225V38.6244H56.062V21.7933H59.7529V38.6244H67.1635V21.7933H70.8544ZM76.1221 26.5288H79.7265V36.5704L88.2328 26.5288H91.5201V41.7624H87.9157V31.7208L79.4381 41.7624H76.1221V26.5288ZM111.132 26.5288V41.7624H107.557V29.5527H99.973V41.7624H96.3686V26.5288H111.132ZM121.734 26.3576C124.002 26.3576 125.732 26.8997 126.924 27.9837C128.135 29.0488 128.741 30.6653 128.741 32.8333V41.7624H125.338V39.9081C124.896 40.5738 124.262 41.0873 123.435 41.4486C122.628 41.7909 121.647 41.9621 120.494 41.9621C119.341 41.9621 118.331 41.7719 117.466 41.3915C116.601 40.9921 115.928 40.4501 115.448 39.7655C114.986 39.0618 114.756 38.2725 114.756 37.3977C114.756 36.0284 115.265 34.9348 116.284 34.1171C117.322 33.2802 118.946 32.8619 121.157 32.8619H125.136V32.6336C125.136 31.5686 124.81 30.7508 124.156 30.1803C123.522 29.6098 122.57 29.3245 121.301 29.3245C120.436 29.3245 119.581 29.4576 118.735 29.7239C117.908 29.9902 117.207 30.361 116.63 30.8364L115.217 28.2404C116.024 27.6318 116.995 27.166 118.129 26.8426C119.264 26.5192 120.465 26.3576 121.734 26.3576ZM121.244 39.3661C122.147 39.3661 122.945 39.1664 123.637 38.767C124.348 38.3487 124.848 37.759 125.136 36.9983V35.2296H121.417C119.341 35.2296 118.302 35.9047 118.302 37.2551C118.302 37.9016 118.562 38.4151 119.081 38.7955C119.6 39.176 120.321 39.3661 121.244 39.3661ZM150.859 42.0476C148.821 42.0476 146.976 41.6102 145.322 40.7354C143.688 39.8415 142.4 38.6148 141.458 37.0554C140.536 35.4959 140.074 33.7366 140.074 31.7778C140.074 29.819 140.545 28.0597 141.487 26.5003C142.429 24.9408 143.717 23.7236 145.351 22.8488C147.004 21.9549 148.85 21.508 150.888 21.508C152.541 21.508 154.05 21.7933 155.415 22.3638C156.779 22.9344 157.933 23.7617 158.875 24.8457L156.453 27.0994C154.992 25.5399 153.194 24.7601 151.061 24.7601C149.676 24.7601 148.437 25.0644 147.341 25.673C146.245 26.2625 145.39 27.0898 144.775 28.1549C144.159 29.2199 143.852 30.4275 143.852 31.7778C143.852 33.1282 144.159 34.3357 144.775 35.4008C145.39 36.4659 146.245 37.3026 147.341 37.9112C148.437 38.5007 149.676 38.7955 151.061 38.7955C153.194 38.7955 154.992 38.0063 156.453 36.4278L158.875 38.71C157.933 39.794 156.77 40.6213 155.386 41.1918C154.021 41.7624 152.512 42.0476 150.859 42.0476ZM176.485 26.5288L169.276 42.989C168.602 44.6436 167.786 45.8037 166.824 46.4694C165.864 47.154 164.701 47.4964 163.336 47.4964C162.567 47.4964 161.807 47.3727 161.057 47.1255C160.307 46.8783 159.693 46.536 159.212 46.0985L160.653 43.474C160.999 43.7974 161.403 44.0541 161.864 44.2442C162.346 44.4344 162.826 44.5295 163.306 44.5295C163.941 44.5295 164.46 44.3679 164.863 44.0446C165.287 43.7212 165.671 43.1792 166.017 42.4185L166.277 41.8194L159.558 26.5288H163.306L168.15 37.7971L173.024 26.5288H176.485Z" fill="url(#paint9_linear_605_2008)"/>
<path d="M70.8544 21.7933V41.7624H44.9316V21.7933H48.6225V38.6244H56.062V21.7933H59.7529V38.6244H67.1635V21.7933H70.8544ZM76.1221 26.5288H79.7265V36.5704L88.2328 26.5288H91.5201V41.7624H87.9157V31.7208L79.4381 41.7624H76.1221V26.5288ZM111.132 26.5288V41.7624H107.557V29.5527H99.973V41.7624H96.3686V26.5288H111.132ZM121.734 26.3576C124.002 26.3576 125.732 26.8997 126.924 27.9837C128.135 29.0488 128.741 30.6653 128.741 32.8333V41.7624H125.338V39.9081C124.896 40.5738 124.262 41.0873 123.435 41.4486C122.628 41.7909 121.647 41.9621 120.494 41.9621C119.341 41.9621 118.331 41.7719 117.466 41.3915C116.601 40.9921 115.928 40.4501 115.448 39.7655C114.986 39.0618 114.756 38.2725 114.756 37.3977C114.756 36.0284 115.265 34.9348 116.284 34.1171C117.322 33.2802 118.946 32.8619 121.157 32.8619H125.136V32.6336C125.136 31.5686 124.81 30.7508 124.156 30.1803C123.522 29.6098 122.57 29.3245 121.301 29.3245C120.436 29.3245 119.581 29.4576 118.735 29.7239C117.908 29.9902 117.207 30.361 116.63 30.8364L115.217 28.2404C116.024 27.6318 116.995 27.166 118.129 26.8426C119.264 26.5192 120.465 26.3576 121.734 26.3576ZM121.244 39.3661C122.147 39.3661 122.945 39.1664 123.637 38.767C124.348 38.3487 124.848 37.759 125.136 36.9983V35.2296H121.417C119.341 35.2296 118.302 35.9047 118.302 37.2551C118.302 37.9016 118.562 38.4151 119.081 38.7955C119.6 39.176 120.321 39.3661 121.244 39.3661ZM150.859 42.0476C148.821 42.0476 146.976 41.6102 145.322 40.7354C143.688 39.8415 142.4 38.6148 141.458 37.0554C140.536 35.4959 140.074 33.7366 140.074 31.7778C140.074 29.819 140.545 28.0597 141.487 26.5003C142.429 24.9408 143.717 23.7236 145.351 22.8488C147.004 21.9549 148.85 21.508 150.888 21.508C152.541 21.508 154.05 21.7933 155.415 22.3638C156.779 22.9344 157.933 23.7617 158.875 24.8457L156.453 27.0994C154.992 25.5399 153.194 24.7601 151.061 24.7601C149.676 24.7601 148.437 25.0644 147.341 25.673C146.245 26.2625 145.39 27.0898 144.775 28.1549C144.159 29.2199 143.852 30.4275 143.852 31.7778C143.852 33.1282 144.159 34.3357 144.775 35.4008C145.39 36.4659 146.245 37.3026 147.341 37.9112C148.437 38.5007 149.676 38.7955 151.061 38.7955C153.194 38.7955 154.992 38.0063 156.453 36.4278L158.875 38.71C157.933 39.794 156.77 40.6213 155.386 41.1918C154.021 41.7624 152.512 42.0476 150.859 42.0476ZM176.485 26.5288L169.276 42.989C168.602 44.6436 167.786 45.8037 166.824 46.4694C165.864 47.154 164.701 47.4964 163.336 47.4964C162.567 47.4964 161.807 47.3727 161.057 47.1255C160.307 46.8783 159.693 46.536 159.212 46.0985L160.653 43.474C160.999 43.7974 161.403 44.0541 161.864 44.2442C162.346 44.4344 162.826 44.5295 163.306 44.5295C163.941 44.5295 164.46 44.3679 164.863 44.0446C165.287 43.7212 165.671 43.1792 166.017 42.4185L166.277 41.8194L159.558 26.5288H163.306L168.15 37.7971L173.024 26.5288H176.485Z" fill="white"/>
<path d="M47.3139 13.05C46.4328 13.05 45.6347 12.8608 44.9198 12.4825C44.2133 12.096 43.6562 11.5656 43.2489 10.8912C42.8499 10.2168 42.6504 9.45608 42.6504 8.609C42.6504 7.76193 42.8541 7.00119 43.2614 6.32682C43.6687 5.65245 44.2257 5.1261 44.9323 4.7478C45.6472 4.36126 46.4453 4.168 47.3264 4.168C48.0413 4.168 48.6938 4.29136 49.284 4.53809C49.8743 4.78481 50.3731 5.14255 50.7803 5.61133L49.7329 6.58588C49.1012 5.91151 48.3239 5.57432 47.4012 5.57432C46.8027 5.57432 46.2665 5.7059 45.7926 5.96907C45.3188 6.22402 44.9489 6.58176 44.6829 7.04232C44.4168 7.50287 44.2839 8.02509 44.2839 8.609C44.2839 9.19292 44.4168 9.71514 44.6829 10.1757C44.9489 10.6362 45.3188 10.9981 45.7926 11.2613C46.2665 11.5162 46.8027 11.6437 47.4012 11.6437C48.3239 11.6437 49.1012 11.3024 49.7329 10.6198L50.7803 11.6067C50.3731 12.0755 49.8701 12.4332 49.2716 12.6799C48.6813 12.9266 48.0288 13.05 47.3139 13.05ZM54.5314 6.26514C55.5123 6.26514 56.2604 6.49953 56.7759 6.9683C57.2996 7.42885 57.5614 8.1279 57.5614 9.06544V12.9266H56.0901V12.1248C55.8988 12.4126 55.6245 12.6347 55.2671 12.7909C54.918 12.939 54.494 13.013 53.9952 13.013C53.4965 13.013 53.06 12.9308 52.686 12.7663C52.3119 12.5936 52.0209 12.3592 51.8131 12.0631C51.6136 11.7588 51.5138 11.4175 51.5138 11.0392C51.5138 10.4471 51.7341 9.9742 52.1747 9.62057C52.6236 9.2587 53.3259 9.07778 54.282 9.07778H56.0028V8.97909C56.0028 8.51853 55.8614 8.1649 55.5788 7.91818C55.3045 7.67146 54.893 7.5481 54.3444 7.5481C53.9703 7.5481 53.6003 7.60566 53.2346 7.7208C52.877 7.83595 52.5737 7.99632 52.3243 8.20191L51.7134 7.07933C52.0625 6.81615 52.4822 6.61467 52.9728 6.47486C53.4631 6.33504 53.9828 6.26514 54.5314 6.26514ZM54.3194 11.8904C54.71 11.8904 55.0551 11.8041 55.3544 11.6314C55.6619 11.4504 55.8781 11.1955 56.0028 10.8665V10.1017H54.3942C53.4965 10.1017 53.0476 10.3936 53.0476 10.9775C53.0476 11.2572 53.1598 11.4792 53.3842 11.6437C53.6087 11.8082 53.9204 11.8904 54.3194 11.8904ZM59.4901 6.33916H61.0488V9.0161H64.403V6.33916H65.9617V12.9266H64.403V10.3237H61.0488V12.9266H59.4901V6.33916ZM70.532 6.26514C71.5128 6.26514 72.261 6.49953 72.7764 6.9683C73.3001 7.42885 73.562 8.1279 73.562 9.06544V12.9266H72.0906V12.1248C71.8994 12.4126 71.625 12.6347 71.2676 12.7909C70.9185 12.939 70.4945 13.013 69.9958 13.013C69.497 13.013 69.0606 12.9308 68.6865 12.7663C68.3124 12.5936 68.0214 12.3592 67.8137 12.0631C67.6141 11.7588 67.5144 11.4175 67.5144 11.0392C67.5144 10.4471 67.7346 9.9742 68.1753 9.62057C68.6242 9.2587 69.3266 9.07778 70.2826 9.07778H72.0033V8.97909C72.0033 8.51853 71.862 8.1649 71.5794 7.91818C71.305 7.67146 70.8936 7.5481 70.3449 7.5481C69.9708 7.5481 69.601 7.60566 69.2351 7.7208C68.8778 7.83595 68.5743 7.99632 68.3249 8.20191L67.7139 7.07933C68.063 6.81615 68.4828 6.61467 68.9733 6.47486C69.4638 6.33504 69.9833 6.26514 70.532 6.26514ZM70.32 11.8904C70.7107 11.8904 71.0557 11.8041 71.3549 11.6314C71.6624 11.4504 71.8786 11.1955 72.0033 10.8665V10.1017H70.3948C69.497 10.1017 69.0481 10.3936 69.0481 10.9775C69.0481 11.2572 69.1603 11.4792 69.3848 11.6437C69.6092 11.8082 69.921 11.8904 70.32 11.8904ZM80.7652 7.64679H78.4334V12.9266H76.8748V7.64679H74.5305V6.33916H80.7652V7.64679ZM84.5712 13.013C83.8979 13.013 83.2911 12.8691 82.7507 12.5812C82.2103 12.2934 81.7864 11.8945 81.4789 11.3846C81.1796 10.8665 81.03 10.2826 81.03 9.6329C81.03 8.9832 81.1796 8.40341 81.4789 7.89351C81.7864 7.38361 82.2103 6.98475 82.7507 6.69691C83.2911 6.40906 83.8979 6.26514 84.5712 6.26514C85.2528 6.26514 85.8638 6.40906 86.4042 6.69691C86.9446 6.98475 87.3643 7.38361 87.6636 7.89351C87.9711 8.40341 88.125 8.9832 88.125 9.6329C88.125 10.2826 87.9711 10.8665 87.6636 11.3846C87.3643 11.8945 86.9446 12.2934 86.4042 12.5812C85.8638 12.8691 85.2528 13.013 84.5712 13.013ZM84.5712 11.693C85.1448 11.693 85.6187 11.5039 85.9927 11.1256C86.3668 10.7473 86.5538 10.2497 86.5538 9.6329C86.5538 9.0161 86.3668 8.51853 85.9927 8.14023C85.6187 7.76193 85.1448 7.57277 84.5712 7.57277C83.9977 7.57277 83.5238 7.76193 83.1497 8.14023C82.7839 8.51853 82.6011 9.0161 82.6011 9.6329C82.6011 10.2497 82.7839 10.7473 83.1497 11.1256C83.5238 11.5039 83.9977 11.693 84.5712 11.693ZM93.3557 6.26514C94.0041 6.26514 94.5817 6.40496 95.0889 6.68457C95.6042 6.96418 96.0074 7.35894 96.2984 7.86884C96.5893 8.37874 96.7348 8.96675 96.7348 9.6329C96.7348 10.2991 96.5893 10.8912 96.2984 11.4093C96.0074 11.9192 95.6042 12.314 95.0889 12.5936C94.5817 12.8732 94.0041 13.013 93.3557 13.013C92.4579 13.013 91.7471 12.7169 91.2234 12.1248V15.3199H89.6648V6.33916H91.1486V7.20269C91.4063 6.89017 91.7222 6.65578 92.0963 6.49953C92.4786 6.34328 92.8984 6.26514 93.3557 6.26514ZM93.1811 11.693C93.7547 11.693 94.2243 11.5039 94.5901 11.1256C94.9642 10.7473 95.1512 10.2497 95.1512 9.6329C95.1512 9.0161 94.9642 8.51853 94.5901 8.14023C94.2243 7.76193 93.7547 7.57277 93.1811 7.57277C92.807 7.57277 92.4704 7.65912 92.1711 7.83183C91.8718 7.99632 91.6349 8.2348 91.4603 8.54732C91.2858 8.85984 91.1985 9.22169 91.1985 9.6329C91.1985 10.0441 91.2858 10.406 91.4603 10.7185C91.6349 11.031 91.8718 11.2736 92.1711 11.4463C92.4704 11.6108 92.807 11.693 93.1811 11.693ZM98.286 6.33916H99.8447V10.6815L103.523 6.33916H104.945V12.9266H103.386V8.58433L99.72 12.9266H98.286V6.33916ZM107.041 6.33916H108.6V10.6815L112.278 6.33916H113.7V12.9266H112.141V8.58433L108.475 12.9266H107.041V6.33916ZM110.271 5.56198C109.597 5.56198 109.082 5.40983 108.725 5.10555C108.376 4.79303 108.197 4.34071 108.188 3.74857H109.223C109.232 4.04464 109.323 4.27903 109.498 4.45173C109.681 4.62444 109.934 4.71079 110.258 4.71079C110.574 4.71079 110.824 4.62444 111.007 4.45173C111.198 4.27903 111.298 4.04464 111.306 3.74857H112.366C112.357 4.34071 112.174 4.79303 111.817 5.10555C111.46 5.40983 110.944 5.56198 110.271 5.56198Z" fill="black"/>
<path d="M47.3139 13.05C46.4328 13.05 45.6347 12.8608 44.9198 12.4825C44.2133 12.096 43.6562 11.5656 43.2489 10.8912C42.8499 10.2168 42.6504 9.45608 42.6504 8.609C42.6504 7.76193 42.8541 7.00119 43.2614 6.32682C43.6687 5.65245 44.2257 5.1261 44.9323 4.7478C45.6472 4.36126 46.4453 4.168 47.3264 4.168C48.0413 4.168 48.6938 4.29136 49.284 4.53809C49.8743 4.78481 50.3731 5.14255 50.7803 5.61133L49.7329 6.58588C49.1012 5.91151 48.3239 5.57432 47.4012 5.57432C46.8027 5.57432 46.2665 5.7059 45.7926 5.96907C45.3188 6.22402 44.9489 6.58176 44.6829 7.04232C44.4168 7.50287 44.2839 8.02509 44.2839 8.609C44.2839 9.19292 44.4168 9.71514 44.6829 10.1757C44.9489 10.6362 45.3188 10.9981 45.7926 11.2613C46.2665 11.5162 46.8027 11.6437 47.4012 11.6437C48.3239 11.6437 49.1012 11.3024 49.7329 10.6198L50.7803 11.6067C50.3731 12.0755 49.8701 12.4332 49.2716 12.6799C48.6813 12.9266 48.0288 13.05 47.3139 13.05ZM54.5314 6.26514C55.5123 6.26514 56.2604 6.49953 56.7759 6.9683C57.2996 7.42885 57.5614 8.1279 57.5614 9.06544V12.9266H56.0901V12.1248C55.8988 12.4126 55.6245 12.6347 55.2671 12.7909C54.918 12.939 54.494 13.013 53.9952 13.013C53.4965 13.013 53.06 12.9308 52.686 12.7663C52.3119 12.5936 52.0209 12.3592 51.8131 12.0631C51.6136 11.7588 51.5138 11.4175 51.5138 11.0392C51.5138 10.4471 51.7341 9.9742 52.1747 9.62057C52.6236 9.2587 53.3259 9.07778 54.282 9.07778H56.0028V8.97909C56.0028 8.51853 55.8614 8.1649 55.5788 7.91818C55.3045 7.67146 54.893 7.5481 54.3444 7.5481C53.9703 7.5481 53.6003 7.60566 53.2346 7.7208C52.877 7.83595 52.5737 7.99632 52.3243 8.20191L51.7134 7.07933C52.0625 6.81615 52.4822 6.61467 52.9728 6.47486C53.4631 6.33504 53.9828 6.26514 54.5314 6.26514ZM54.3194 11.8904C54.71 11.8904 55.0551 11.8041 55.3544 11.6314C55.6619 11.4504 55.8781 11.1955 56.0028 10.8665V10.1017H54.3942C53.4965 10.1017 53.0476 10.3936 53.0476 10.9775C53.0476 11.2572 53.1598 11.4792 53.3842 11.6437C53.6087 11.8082 53.9204 11.8904 54.3194 11.8904ZM59.4901 6.33916H61.0488V9.0161H64.403V6.33916H65.9617V12.9266H64.403V10.3237H61.0488V12.9266H59.4901V6.33916ZM70.532 6.26514C71.5128 6.26514 72.261 6.49953 72.7764 6.9683C73.3001 7.42885 73.562 8.1279 73.562 9.06544V12.9266H72.0906V12.1248C71.8994 12.4126 71.625 12.6347 71.2676 12.7909C70.9185 12.939 70.4945 13.013 69.9958 13.013C69.497 13.013 69.0606 12.9308 68.6865 12.7663C68.3124 12.5936 68.0214 12.3592 67.8137 12.0631C67.6141 11.7588 67.5144 11.4175 67.5144 11.0392C67.5144 10.4471 67.7346 9.9742 68.1753 9.62057C68.6242 9.2587 69.3266 9.07778 70.2826 9.07778H72.0033V8.97909C72.0033 8.51853 71.862 8.1649 71.5794 7.91818C71.305 7.67146 70.8936 7.5481 70.3449 7.5481C69.9708 7.5481 69.601 7.60566 69.2351 7.7208C68.8778 7.83595 68.5743 7.99632 68.3249 8.20191L67.7139 7.07933C68.063 6.81615 68.4828 6.61467 68.9733 6.47486C69.4638 6.33504 69.9833 6.26514 70.532 6.26514ZM70.32 11.8904C70.7107 11.8904 71.0557 11.8041 71.3549 11.6314C71.6624 11.4504 71.8786 11.1955 72.0033 10.8665V10.1017H70.3948C69.497 10.1017 69.0481 10.3936 69.0481 10.9775C69.0481 11.2572 69.1603 11.4792 69.3848 11.6437C69.6092 11.8082 69.921 11.8904 70.32 11.8904ZM80.7652 7.64679H78.4334V12.9266H76.8748V7.64679H74.5305V6.33916H80.7652V7.64679ZM84.5712 13.013C83.8979 13.013 83.2911 12.8691 82.7507 12.5812C82.2103 12.2934 81.7864 11.8945 81.4789 11.3846C81.1796 10.8665 81.03 10.2826 81.03 9.6329C81.03 8.9832 81.1796 8.40341 81.4789 7.89351C81.7864 7.38361 82.2103 6.98475 82.7507 6.69691C83.2911 6.40906 83.8979 6.26514 84.5712 6.26514C85.2528 6.26514 85.8638 6.40906 86.4042 6.69691C86.9446 6.98475 87.3643 7.38361 87.6636 7.89351C87.9711 8.40341 88.125 8.9832 88.125 9.6329C88.125 10.2826 87.9711 10.8665 87.6636 11.3846C87.3643 11.8945 86.9446 12.2934 86.4042 12.5812C85.8638 12.8691 85.2528 13.013 84.5712 13.013ZM84.5712 11.693C85.1448 11.693 85.6187 11.5039 85.9927 11.1256C86.3668 10.7473 86.5538 10.2497 86.5538 9.6329C86.5538 9.0161 86.3668 8.51853 85.9927 8.14023C85.6187 7.76193 85.1448 7.57277 84.5712 7.57277C83.9977 7.57277 83.5238 7.76193 83.1497 8.14023C82.7839 8.51853 82.6011 9.0161 82.6011 9.6329C82.6011 10.2497 82.7839 10.7473 83.1497 11.1256C83.5238 11.5039 83.9977 11.693 84.5712 11.693ZM93.3557 6.26514C94.0041 6.26514 94.5817 6.40496 95.0889 6.68457C95.6042 6.96418 96.0074 7.35894 96.2984 7.86884C96.5893 8.37874 96.7348 8.96675 96.7348 9.6329C96.7348 10.2991 96.5893 10.8912 96.2984 11.4093C96.0074 11.9192 95.6042 12.314 95.0889 12.5936C94.5817 12.8732 94.0041 13.013 93.3557 13.013C92.4579 13.013 91.7471 12.7169 91.2234 12.1248V15.3199H89.6648V6.33916H91.1486V7.20269C91.4063 6.89017 91.7222 6.65578 92.0963 6.49953C92.4786 6.34328 92.8984 6.26514 93.3557 6.26514ZM93.1811 11.693C93.7547 11.693 94.2243 11.5039 94.5901 11.1256C94.9642 10.7473 95.1512 10.2497 95.1512 9.6329C95.1512 9.0161 94.9642 8.51853 94.5901 8.14023C94.2243 7.76193 93.7547 7.57277 93.1811 7.57277C92.807 7.57277 92.4704 7.65912 92.1711 7.83183C91.8718 7.99632 91.6349 8.2348 91.4603 8.54732C91.2858 8.85984 91.1985 9.22169 91.1985 9.6329C91.1985 10.0441 91.2858 10.406 91.4603 10.7185C91.6349 11.031 91.8718 11.2736 92.1711 11.4463C92.4704 11.6108 92.807 11.693 93.1811 11.693ZM98.286 6.33916H99.8447V10.6815L103.523 6.33916H104.945V12.9266H103.386V8.58433L99.72 12.9266H98.286V6.33916ZM107.041 6.33916H108.6V10.6815L112.278 6.33916H113.7V12.9266H112.141V8.58433L108.475 12.9266H107.041V6.33916ZM110.271 5.56198C109.597 5.56198 109.082 5.40983 108.725 5.10555C108.376 4.79303 108.197 4.34071 108.188 3.74857H109.223C109.232 4.04464 109.323 4.27903 109.498 4.45173C109.681 4.62444 109.934 4.71079 110.258 4.71079C110.574 4.71079 110.824 4.62444 111.007 4.45173C111.198 4.27903 111.298 4.04464 111.306 3.74857H112.366C112.357 4.34071 112.174 4.79303 111.817 5.10555C111.46 5.40983 110.944 5.56198 110.271 5.56198Z" fill="url(#paint10_linear_605_2008)"/>
<path d="M47.3139 13.05C46.4328 13.05 45.6347 12.8608 44.9198 12.4825C44.2133 12.096 43.6562 11.5656 43.2489 10.8912C42.8499 10.2168 42.6504 9.45608 42.6504 8.609C42.6504 7.76193 42.8541 7.00119 43.2614 6.32682C43.6687 5.65245 44.2257 5.1261 44.9323 4.7478C45.6472 4.36126 46.4453 4.168 47.3264 4.168C48.0413 4.168 48.6938 4.29136 49.284 4.53809C49.8743 4.78481 50.3731 5.14255 50.7803 5.61133L49.7329 6.58588C49.1012 5.91151 48.3239 5.57432 47.4012 5.57432C46.8027 5.57432 46.2665 5.7059 45.7926 5.96907C45.3188 6.22402 44.9489 6.58176 44.6829 7.04232C44.4168 7.50287 44.2839 8.02509 44.2839 8.609C44.2839 9.19292 44.4168 9.71514 44.6829 10.1757C44.9489 10.6362 45.3188 10.9981 45.7926 11.2613C46.2665 11.5162 46.8027 11.6437 47.4012 11.6437C48.3239 11.6437 49.1012 11.3024 49.7329 10.6198L50.7803 11.6067C50.3731 12.0755 49.8701 12.4332 49.2716 12.6799C48.6813 12.9266 48.0288 13.05 47.3139 13.05ZM54.5314 6.26514C55.5123 6.26514 56.2604 6.49953 56.7759 6.9683C57.2996 7.42885 57.5614 8.1279 57.5614 9.06544V12.9266H56.0901V12.1248C55.8988 12.4126 55.6245 12.6347 55.2671 12.7909C54.918 12.939 54.494 13.013 53.9952 13.013C53.4965 13.013 53.06 12.9308 52.686 12.7663C52.3119 12.5936 52.0209 12.3592 51.8131 12.0631C51.6136 11.7588 51.5138 11.4175 51.5138 11.0392C51.5138 10.4471 51.7341 9.9742 52.1747 9.62057C52.6236 9.2587 53.3259 9.07778 54.282 9.07778H56.0028V8.97909C56.0028 8.51853 55.8614 8.1649 55.5788 7.91818C55.3045 7.67146 54.893 7.5481 54.3444 7.5481C53.9703 7.5481 53.6003 7.60566 53.2346 7.7208C52.877 7.83595 52.5737 7.99632 52.3243 8.20191L51.7134 7.07933C52.0625 6.81615 52.4822 6.61467 52.9728 6.47486C53.4631 6.33504 53.9828 6.26514 54.5314 6.26514ZM54.3194 11.8904C54.71 11.8904 55.0551 11.8041 55.3544 11.6314C55.6619 11.4504 55.8781 11.1955 56.0028 10.8665V10.1017H54.3942C53.4965 10.1017 53.0476 10.3936 53.0476 10.9775C53.0476 11.2572 53.1598 11.4792 53.3842 11.6437C53.6087 11.8082 53.9204 11.8904 54.3194 11.8904ZM59.4901 6.33916H61.0488V9.0161H64.403V6.33916H65.9617V12.9266H64.403V10.3237H61.0488V12.9266H59.4901V6.33916ZM70.532 6.26514C71.5128 6.26514 72.261 6.49953 72.7764 6.9683C73.3001 7.42885 73.562 8.1279 73.562 9.06544V12.9266H72.0906V12.1248C71.8994 12.4126 71.625 12.6347 71.2676 12.7909C70.9185 12.939 70.4945 13.013 69.9958 13.013C69.497 13.013 69.0606 12.9308 68.6865 12.7663C68.3124 12.5936 68.0214 12.3592 67.8137 12.0631C67.6141 11.7588 67.5144 11.4175 67.5144 11.0392C67.5144 10.4471 67.7346 9.9742 68.1753 9.62057C68.6242 9.2587 69.3266 9.07778 70.2826 9.07778H72.0033V8.97909C72.0033 8.51853 71.862 8.1649 71.5794 7.91818C71.305 7.67146 70.8936 7.5481 70.3449 7.5481C69.9708 7.5481 69.601 7.60566 69.2351 7.7208C68.8778 7.83595 68.5743 7.99632 68.3249 8.20191L67.7139 7.07933C68.063 6.81615 68.4828 6.61467 68.9733 6.47486C69.4638 6.33504 69.9833 6.26514 70.532 6.26514ZM70.32 11.8904C70.7107 11.8904 71.0557 11.8041 71.3549 11.6314C71.6624 11.4504 71.8786 11.1955 72.0033 10.8665V10.1017H70.3948C69.497 10.1017 69.0481 10.3936 69.0481 10.9775C69.0481 11.2572 69.1603 11.4792 69.3848 11.6437C69.6092 11.8082 69.921 11.8904 70.32 11.8904ZM80.7652 7.64679H78.4334V12.9266H76.8748V7.64679H74.5305V6.33916H80.7652V7.64679ZM84.5712 13.013C83.8979 13.013 83.2911 12.8691 82.7507 12.5812C82.2103 12.2934 81.7864 11.8945 81.4789 11.3846C81.1796 10.8665 81.03 10.2826 81.03 9.6329C81.03 8.9832 81.1796 8.40341 81.4789 7.89351C81.7864 7.38361 82.2103 6.98475 82.7507 6.69691C83.2911 6.40906 83.8979 6.26514 84.5712 6.26514C85.2528 6.26514 85.8638 6.40906 86.4042 6.69691C86.9446 6.98475 87.3643 7.38361 87.6636 7.89351C87.9711 8.40341 88.125 8.9832 88.125 9.6329C88.125 10.2826 87.9711 10.8665 87.6636 11.3846C87.3643 11.8945 86.9446 12.2934 86.4042 12.5812C85.8638 12.8691 85.2528 13.013 84.5712 13.013ZM84.5712 11.693C85.1448 11.693 85.6187 11.5039 85.9927 11.1256C86.3668 10.7473 86.5538 10.2497 86.5538 9.6329C86.5538 9.0161 86.3668 8.51853 85.9927 8.14023C85.6187 7.76193 85.1448 7.57277 84.5712 7.57277C83.9977 7.57277 83.5238 7.76193 83.1497 8.14023C82.7839 8.51853 82.6011 9.0161 82.6011 9.6329C82.6011 10.2497 82.7839 10.7473 83.1497 11.1256C83.5238 11.5039 83.9977 11.693 84.5712 11.693ZM93.3557 6.26514C94.0041 6.26514 94.5817 6.40496 95.0889 6.68457C95.6042 6.96418 96.0074 7.35894 96.2984 7.86884C96.5893 8.37874 96.7348 8.96675 96.7348 9.6329C96.7348 10.2991 96.5893 10.8912 96.2984 11.4093C96.0074 11.9192 95.6042 12.314 95.0889 12.5936C94.5817 12.8732 94.0041 13.013 93.3557 13.013C92.4579 13.013 91.7471 12.7169 91.2234 12.1248V15.3199H89.6648V6.33916H91.1486V7.20269C91.4063 6.89017 91.7222 6.65578 92.0963 6.49953C92.4786 6.34328 92.8984 6.26514 93.3557 6.26514ZM93.1811 11.693C93.7547 11.693 94.2243 11.5039 94.5901 11.1256C94.9642 10.7473 95.1512 10.2497 95.1512 9.6329C95.1512 9.0161 94.9642 8.51853 94.5901 8.14023C94.2243 7.76193 93.7547 7.57277 93.1811 7.57277C92.807 7.57277 92.4704 7.65912 92.1711 7.83183C91.8718 7.99632 91.6349 8.2348 91.4603 8.54732C91.2858 8.85984 91.1985 9.22169 91.1985 9.6329C91.1985 10.0441 91.2858 10.406 91.4603 10.7185C91.6349 11.031 91.8718 11.2736 92.1711 11.4463C92.4704 11.6108 92.807 11.693 93.1811 11.693ZM98.286 6.33916H99.8447V10.6815L103.523 6.33916H104.945V12.9266H103.386V8.58433L99.72 12.9266H98.286V6.33916ZM107.041 6.33916H108.6V10.6815L112.278 6.33916H113.7V12.9266H112.141V8.58433L108.475 12.9266H107.041V6.33916ZM110.271 5.56198C109.597 5.56198 109.082 5.40983 108.725 5.10555C108.376 4.79303 108.197 4.34071 108.188 3.74857H109.223C109.232 4.04464 109.323 4.27903 109.498 4.45173C109.681 4.62444 109.934 4.71079 110.258 4.71079C110.574 4.71079 110.824 4.62444 111.007 4.45173C111.198 4.27903 111.298 4.04464 111.306 3.74857H112.366C112.357 4.34071 112.174 4.79303 111.817 5.10555C111.46 5.40983 110.944 5.56198 110.271 5.56198Z" fill="white"/>
</g>
<defs>
<linearGradient id="paint0_linear_605_2008" x1="6.31127" y1="22.3689" x2="6.31677" y2="22.3725" gradientUnits="userSpaceOnUse">
<stop stop-color="#00E1FF"/>
<stop offset="1" stop-color="#0F5F9E"/>
</linearGradient>
<linearGradient id="paint1_linear_605_2008" x1="924.749" y1="5827.87" x2="8300.94" y2="8688.05" gradientUnits="userSpaceOnUse">
<stop stop-color="#00E1FF"/>
<stop offset="1" stop-color="#0F5F9E"/>
</linearGradient>
<linearGradient id="paint2_linear_605_2008" x1="17.3244" y1="16.6861" x2="17.3244" y2="33.3738" gradientUnits="userSpaceOnUse">
<stop stop-color="#00E25B"/>
<stop offset="0.05" stop-color="#00D957"/>
<stop offset="0.36" stop-color="#00A944"/>
<stop offset="0.63" stop-color="#008536"/>
<stop offset="0.86" stop-color="#00702D"/>
<stop offset="1" stop-color="#00682A"/>
</linearGradient>
<linearGradient id="paint3_linear_605_2008" x1="1441.51" y1="3303.75" x2="1441.51" y2="5035.05" gradientUnits="userSpaceOnUse">
<stop stop-color="#00E25B"/>
<stop offset="0.05" stop-color="#00D957"/>
<stop offset="0.36" stop-color="#00A944"/>
<stop offset="0.63" stop-color="#008536"/>
<stop offset="0.86" stop-color="#00702D"/>
<stop offset="1" stop-color="#00682A"/>
</linearGradient>
<linearGradient id="paint4_linear_605_2008" x1="1348.37" y1="2694.92" x2="1348.37" y2="4117.82" gradientUnits="userSpaceOnUse">
<stop stop-color="#00E25B"/>
<stop offset="0.05" stop-color="#00D957"/>
<stop offset="0.36" stop-color="#00A944"/>
<stop offset="0.63" stop-color="#008536"/>
<stop offset="0.86" stop-color="#00702D"/>
<stop offset="1" stop-color="#00682A"/>
</linearGradient>
<linearGradient id="paint5_linear_605_2008" x1="22.2201" y1="39.4722" x2="14.8403" y2="48.3628" gradientUnits="userSpaceOnUse">
<stop stop-color="#00AF47"/>
<stop offset="0.21" stop-color="#00AA45"/>
<stop offset="0.48" stop-color="#009A3E"/>
<stop offset="0.78" stop-color="#008034"/>
<stop offset="1" stop-color="#00682A"/>
</linearGradient>
<linearGradient id="paint6_linear_605_2008" x1="3032.06" y1="3550.83" x2="1431.53" y2="4968.11" gradientUnits="userSpaceOnUse">
<stop stop-color="#00AF47"/>
<stop offset="0.253992" stop-color="#00AA45"/>
<stop offset="0.493579" stop-color="#009A3E"/>
<stop offset="0.759209" stop-color="#008034"/>
<stop offset="1" stop-color="#00682A"/>
</linearGradient>
<linearGradient id="paint7_linear_605_2008" x1="0.919504" y1="34.1076" x2="23.8088" y2="47.4661" gradientUnits="userSpaceOnUse">
<stop stop-color="#00EA5F"/>
<stop offset="0.2" stop-color="#00E55D"/>
<stop offset="0.45" stop-color="#00D556"/>
<stop offset="0.73" stop-color="#00BB4C"/>
<stop offset="1" stop-color="#009B3F"/>
</linearGradient>
<linearGradient id="paint8_linear_605_2008" x1="30.8782" y1="12.5658" x2="190.929" y2="52.6578" gradientUnits="userSpaceOnUse">
<stop stop-color="#00EA5F"/>
<stop offset="0.57821" stop-color="#00CD53"/>
<stop offset="0.835143" stop-color="#009B3F"/>
</linearGradient>
<linearGradient id="paint9_linear_605_2008" x1="42.077" y1="31.6173" x2="172.08" y2="31.6173" gradientUnits="userSpaceOnUse">
<stop stop-color="#00E1FF"/>
<stop offset="0.19149" stop-color="#03C8EC"/>
<stop offset="0.35816" stop-color="#05B2DC"/>
<stop offset="0.535247" stop-color="#089BCB"/>
<stop offset="0.738375" stop-color="#0B81B7"/>
<stop offset="1" stop-color="#0F5F9E"/>
</linearGradient>
<linearGradient id="paint10_linear_605_2008" x1="42.0768" y1="8.46877" x2="112.426" y2="8.46877" gradientUnits="userSpaceOnUse">
<stop stop-color="#00E1FF"/>
<stop offset="0.19149" stop-color="#03C8EC"/>
<stop offset="0.35816" stop-color="#05B2DC"/>
<stop offset="0.535247" stop-color="#089BCB"/>
<stop offset="0.738375" stop-color="#0B81B7"/>
<stop offset="1" stop-color="#0F5F9E"/>
</linearGradient>
<clipPath id="clip0_605_2008">
<rect width="175.661" height="48.4193" fill="white" transform="translate(0.928711 0.898773)"/>
</clipPath>
</defs>
</svg>
