<svg width="185" height="51" viewBox="0 0 185 51" fill="none" xmlns="http://www.w3.org/2000/svg">
<g clip-path="url(#clip0_234_54)">
<path fill-rule="evenodd" clip-rule="evenodd" d="M5.67594 22.6672L5.66504 22.6765C5.66504 22.6765 5.67282 22.6672 5.67594 22.6672Z" fill="url(#paint0_linear_234_54)"/>
<path fill-rule="evenodd" clip-rule="evenodd" d="M5.69117 22.6513C5.6979 22.6465 5.70504 22.6422 5.71251 22.6385C5.71251 22.6385 5.71251 22.6274 5.72072 22.6226L5.69117 22.6513ZM5.69117 22.6513C5.6979 22.6465 5.70504 22.6422 5.71251 22.6385C5.71251 22.6385 5.71251 22.6274 5.72072 22.6226L5.69117 22.6513ZM5.69117 22.6513C5.6979 22.6465 5.70504 22.6422 5.71251 22.6385C5.71251 22.6385 5.71251 22.6274 5.72072 22.6226L5.69117 22.6513ZM5.69117 22.6513C5.6979 22.6465 5.70504 22.6422 5.71251 22.6385C5.71251 22.6385 5.71251 22.6274 5.72072 22.6226L5.69117 22.6513ZM5.69117 22.6513C5.6979 22.6465 5.70504 22.6422 5.71251 22.6385C5.71251 22.6385 5.71251 22.6274 5.72072 22.6226L5.69117 22.6513ZM17.7137 16.8025C12.9951 20.207 9.68697 25.1358 8.38656 30.699C11.6514 31.0368 14.7712 32.1858 17.4445 34.035C19.6574 31.1699 22.6795 28.9889 26.1446 27.7564C24.4937 23.3866 21.5636 19.5796 17.7137 16.8025ZM5.69117 22.6513C5.6979 22.6465 5.70504 22.6422 5.71251 22.6385C5.71251 22.6385 5.71251 22.6274 5.72072 22.6226L5.69117 22.6513ZM5.69117 22.6513C5.6979 22.6465 5.70504 22.6422 5.71251 22.6385C5.71251 22.6385 5.71251 22.6274 5.72072 22.6226L5.69117 22.6513ZM5.69117 22.6513C5.6979 22.6465 5.70504 22.6422 5.71251 22.6385C5.71251 22.6385 5.71251 22.6274 5.72072 22.6226L5.69117 22.6513ZM5.69117 22.6513C5.6979 22.6465 5.70504 22.6422 5.71251 22.6385C5.71251 22.6385 5.71251 22.6274 5.72072 22.6226L5.69117 22.6513ZM5.69117 22.6513C5.6979 22.6465 5.70504 22.6422 5.71251 22.6385C5.71251 22.6385 5.71251 22.6274 5.72072 22.6226L5.69117 22.6513ZM5.69117 22.6513C5.6979 22.6465 5.70504 22.6422 5.71251 22.6385C5.71251 22.6385 5.71251 22.6274 5.72072 22.6226L5.69117 22.6513ZM5.69117 22.6513C5.6979 22.6465 5.70504 22.6422 5.71251 22.6385C5.71251 22.6385 5.71251 22.6274 5.72072 22.6226L5.69117 22.6513ZM30.8213 21.3025L17.2771 0.5L3.73283 21.3025C2.25708 23.8495 1.15223 26.5825 0.449778 29.4236C0.264832 30.1815 0.114907 30.9172 0 31.6306C2.03516 30.9416 4.17583 30.5917 6.33137 30.5955C6.39703 30.5955 6.46433 30.5955 6.52999 30.5955C7.9289 24.2731 11.7344 18.6949 17.1868 14.9745L17.7137 14.6147L18.2423 14.9745C22.6816 18.0013 26.0551 22.278 27.9059 27.2261C29.4608 26.8361 31.0605 26.6398 32.6664 26.6417C32.8732 26.6417 33.0817 26.6417 33.2918 26.6529C32.6367 24.8006 31.8098 23.0099 30.8213 21.3025ZM12.6644 12.6561C11.993 13.8264 11.3052 14.9443 10.6026 16.0334C9.90004 17.1226 9.18106 18.1752 8.38327 19.2691C7.9811 19.8217 7.56251 20.3838 7.11109 20.9618C6.87964 21.258 6.64326 21.5557 6.39539 21.8599C6.27227 22.0191 6.14095 22.1783 6.01127 22.328L5.81264 22.5685L5.76832 22.621V22.629C5.76023 22.6444 5.75032 22.6588 5.73878 22.672C5.73878 22.672 5.73878 22.672 5.72564 22.6863C5.70166 22.7123 5.67266 22.7333 5.64028 22.7484C5.62715 22.7484 5.62387 22.7373 5.62715 22.7357V22.7118V22.672L5.66327 22.5127C5.69774 22.4029 5.73221 22.2914 5.77653 22.1704C5.85861 21.9347 5.96366 21.6847 6.07365 21.4252C6.30182 20.8965 6.58252 20.328 6.89441 19.7404C7.53461 18.5223 8.30612 17.2341 9.16136 15.9188C10.0166 14.6035 10.949 13.2548 11.9224 11.9745C12.4017 11.3487 12.8843 10.7373 13.3702 10.164C13.8137 9.6301 14.2883 9.12131 14.7918 8.64013C14.0646 10.1497 13.362 11.4363 12.6644 12.6561ZM5.71251 22.6338C5.71251 22.6338 5.71251 22.6226 5.72072 22.6178L5.69117 22.6481C5.69784 22.6427 5.70498 22.6379 5.71251 22.6338ZM33.4297 29.6401C33.3328 29.2389 33.2245 28.844 33.1014 28.4363H32.6467C31.2355 28.4352 29.8293 28.6037 28.4608 28.9379C28.1653 29.0096 27.8731 29.0876 27.5842 29.1752C27.2953 29.2627 26.9949 29.3599 26.706 29.465C23.5869 30.5871 20.8692 32.5608 18.8808 35.1481C21.5537 37.3847 23.5411 40.2909 24.6262 43.5494C24.7296 43.8535 24.8215 44.1608 24.9052 44.4713C24.989 44.7819 25.0694 45.1083 25.14 45.4268C25.3644 46.4674 25.4957 47.525 25.5323 48.5876C27.7168 47.6707 29.6373 46.25 31.1266 44.4491C34.106 40.7962 34.9038 35.672 33.4297 29.6401ZM5.68789 22.6592C5.69462 22.6545 5.70176 22.6502 5.70923 22.6465C5.70923 22.6465 5.70923 22.6354 5.71744 22.6306L5.68789 22.6592ZM23.4837 46.5191C23.4311 46.2006 23.3688 45.8869 23.2965 45.578C23.2243 45.2691 23.1455 44.9645 23.0602 44.664C22.1535 41.561 20.3495 38.7748 17.8614 36.6354C17.6283 36.4326 17.3892 36.2373 17.1441 36.0494C16.9061 35.8647 16.6615 35.6863 16.4136 35.5143C13.9482 33.8005 11.0606 32.7476 8.04184 32.4618C7.73651 32.4315 7.42955 32.4092 7.12094 32.3981C6.8583 32.3854 6.59401 32.379 6.32808 32.379H6.20004C4.41121 32.3885 2.63473 32.6674 0.934028 33.2054C0.45142 38.0382 1.59064 42.008 4.34184 45.0112C6.72205 47.6147 10.2513 49.3328 14.3043 49.9204C14.6326 49.9693 14.9609 50.0096 15.2892 50.0414C15.6175 50.0748 15.9458 50.1003 16.2741 50.1162C16.3058 50.1178 16.3376 50.1178 16.3693 50.1162C16.435 50.1162 16.5006 50.1162 16.5679 50.1258L16.9373 50.1385L17.2656 50.3567L17.5775 50.1449C17.7186 50.1449 17.8598 50.1449 18.001 50.1449H18.1192L18.3654 50.1369C18.4819 50.1369 18.5985 50.1274 18.7134 50.121C18.8283 50.1147 18.9875 50.1019 19.1238 50.0924H19.1878C20.7238 49.978 22.2414 49.6954 23.7118 49.25C23.7125 48.3352 23.6362 47.4218 23.4837 46.5191ZM5.69117 22.6513C5.6979 22.6465 5.70504 22.6422 5.71251 22.6385C5.71251 22.6385 5.71251 22.6274 5.72072 22.6226L5.69117 22.6513ZM5.69117 22.6513C5.6979 22.6465 5.70504 22.6422 5.71251 22.6385C5.71251 22.6385 5.71251 22.6274 5.72072 22.6226L5.69117 22.6513ZM5.69117 22.6513C5.6979 22.6465 5.70504 22.6422 5.71251 22.6385C5.71251 22.6385 5.71251 22.6274 5.72072 22.6226L5.69117 22.6513ZM5.69117 22.6513C5.6979 22.6465 5.70504 22.6422 5.71251 22.6385C5.71251 22.6385 5.71251 22.6274 5.72072 22.6226L5.69117 22.6513ZM5.69117 22.6513C5.6979 22.6465 5.70504 22.6422 5.71251 22.6385C5.71251 22.6385 5.71251 22.6274 5.72072 22.6226L5.69117 22.6513ZM5.69117 22.6513C5.6979 22.6465 5.70504 22.6422 5.71251 22.6385C5.71251 22.6385 5.71251 22.6274 5.72072 22.6226L5.69117 22.6513ZM5.69117 22.6513C5.6979 22.6465 5.70504 22.6422 5.71251 22.6385C5.71251 22.6385 5.71251 22.6274 5.72072 22.6226L5.69117 22.6513ZM5.69117 22.6513C5.6979 22.6465 5.70504 22.6422 5.71251 22.6385C5.71251 22.6385 5.71251 22.6274 5.72072 22.6226L5.69117 22.6513ZM5.69117 22.6513C5.6979 22.6465 5.70504 22.6422 5.71251 22.6385C5.71251 22.6385 5.71251 22.6274 5.72072 22.6226L5.69117 22.6513Z" fill="url(#paint1_linear_234_54)"/>
<path fill-rule="evenodd" clip-rule="evenodd" d="M13.3697 10.164C12.8773 10.7373 12.4012 11.3487 11.9219 11.9745C10.9485 13.2484 10.0276 14.5828 9.15921 15.9188C8.29084 17.2548 7.53245 18.5271 6.89226 19.7404C6.58365 20.328 6.30295 20.8965 6.07149 21.4252C5.96151 21.6847 5.85646 21.9347 5.77438 22.1704C5.73006 22.2914 5.69559 22.4029 5.66111 22.5127L5.625 22.672V22.7118V22.7357C5.625 22.7357 5.625 22.75 5.63813 22.7484C5.6705 22.7333 5.69951 22.7123 5.72349 22.6863C5.73498 22.6767 5.7317 22.6767 5.73662 22.672C5.74816 22.6588 5.75808 22.6444 5.76617 22.629V22.621L5.81049 22.5685L6.00912 22.328C6.1388 22.1688 6.27012 22.0095 6.39323 21.8599C6.6411 21.5557 6.87748 21.258 7.10894 20.9618C7.56036 20.3822 7.97895 19.8217 8.38112 19.2691C9.17891 18.1799 9.90774 17.1099 10.6005 16.0334C11.2932 14.957 11.9908 13.8264 12.6622 12.6561C13.3599 11.4363 14.0624 10.1497 14.7962 8.64014C14.291 9.12117 13.8147 9.62998 13.3697 10.164ZM5.712 22.6338C5.70453 22.6374 5.69739 22.6417 5.69066 22.6465L5.72021 22.6162C5.72021 22.6162 5.71528 22.6338 5.712 22.6338Z" fill="white"/>
<path d="M5.72056 22.621L5.71246 22.6369C5.70509 22.6406 5.69805 22.6449 5.69141 22.6497L5.72056 22.621Z" fill="white"/>
<path fill-rule="evenodd" clip-rule="evenodd" d="M26.1458 27.7563C22.6807 28.9888 19.6585 31.1699 17.4457 34.035C14.7724 32.1858 11.6525 31.0368 8.3877 30.699C9.68811 25.1358 12.9963 20.207 17.7149 16.8025C21.5646 19.5796 24.4949 23.3866 26.1458 27.7563Z" fill="url(#paint2_linear_234_54)"/>
<path fill-rule="evenodd" clip-rule="evenodd" d="M23.0597 44.6592C23.1483 44.9597 23.2271 45.2643 23.2961 45.5732C21.5839 46.6544 19.5337 47.7213 17.2634 49.2691C16.7611 48.9272 16.2747 48.6087 15.8041 48.3137C15.4451 48.0823 15.0955 47.8619 14.7552 47.6528C14.4088 47.4363 14.0739 47.2309 13.7489 47.0302C9.34961 44.3232 6.85449 42.7102 6.85449 35.9649C6.85421 34.772 6.94253 33.5804 7.11878 32.3997C7.42739 32.4108 7.73435 32.4331 8.03967 32.4634C11.0584 32.7492 13.9461 33.802 16.4115 35.5159C16.6594 35.6879 16.9039 35.8662 17.142 36.0509C17.38 36.2356 17.6344 36.4347 17.8593 36.6369C20.3469 38.7745 22.1514 41.5583 23.0597 44.6592Z" fill="url(#paint3_linear_234_54)"/>
<path fill-rule="evenodd" clip-rule="evenodd" d="M28.5626 35.9586C28.5626 40.465 27.1903 42.6783 24.9004 44.4586C24.8167 44.1481 24.7247 43.8408 24.6213 43.5366C23.5364 40.2782 21.5489 37.372 18.876 35.1353C20.8644 32.5481 23.5821 30.5744 26.7011 29.4522C26.99 29.3471 27.2822 29.2516 27.5794 29.1624C28.2312 31.3724 28.5621 33.6599 28.5626 35.9586Z" fill="url(#paint4_linear_234_54)"/>
<path d="M23.2966 45.5733C23.2276 45.2643 23.1488 44.9596 23.0602 44.6592C22.3691 45.1051 21.6025 45.5541 20.7621 46.043C19.7 46.664 18.5132 47.3583 17.2623 48.1863C16.6878 47.8041 16.1346 47.4506 15.6077 47.121C15.2663 46.9086 14.9379 46.7043 14.6228 46.508L14.3946 46.3599L13.6641 45.9092C9.74416 43.4745 7.77925 41.9284 7.77925 35.9522C7.7792 34.7798 7.86809 33.6088 8.04518 32.4491C7.73985 32.4188 7.43289 32.3965 7.12428 32.3854C6.86164 32.3726 6.59735 32.3663 6.33143 32.3663H6.20339C6.0297 33.553 5.94248 34.7503 5.94238 35.9491C5.94238 43.2596 8.91355 45.0892 13.4097 47.8599L13.9136 48.1704C14.2567 48.3838 14.6129 48.6051 14.9823 48.8392C15.3516 49.0733 15.7292 49.3169 16.1182 49.5748C16.3218 49.7086 16.5276 49.8465 16.7354 49.9889L16.9422 50.1306L17.2705 50.3487L17.5824 50.1369L17.7991 49.9904C19.1928 49.035 20.5355 48.2532 21.7191 47.5605C22.3346 47.2006 22.9272 46.8551 23.4903 46.5064C23.4335 46.1963 23.3688 45.8854 23.2966 45.5733ZM28.469 28.9252C28.1735 28.9968 27.8814 29.0749 27.5924 29.1624C27.3035 29.25 27.0031 29.3471 26.7142 29.4522C27.3351 31.5685 27.6499 33.7583 27.6499 35.9586C27.6499 39.9284 26.5993 41.9124 24.6262 43.5366C24.7296 43.8408 24.8215 44.1481 24.9053 44.4586C24.989 44.7691 25.0694 45.0955 25.14 45.414C27.7861 43.4729 29.4868 41.0605 29.4868 35.9586C29.4871 33.5795 29.1445 31.2121 28.469 28.9252Z" fill="white"/>
<path d="M23.4833 46.5191C23.6338 47.414 23.7097 48.3193 23.7098 49.2261C22.2394 49.6715 20.7218 49.9541 19.1858 50.0685H19.1218C18.9855 50.078 18.8493 50.0892 18.7114 50.0971C18.5735 50.1051 18.4799 50.1099 18.3634 50.1131L18.1172 50.121H17.999C17.8578 50.121 17.7166 50.121 17.5755 50.121L17.2636 50.3328L16.9353 50.1146L16.5659 50.1019C16.4986 50.1019 16.433 50.1019 16.3673 50.0924C16.3356 50.094 16.3038 50.094 16.2721 50.0924C15.9438 50.0764 15.6154 50.051 15.2871 50.0175C15.169 49.6268 15.065 49.2303 14.9753 48.828C14.885 48.4315 14.8111 48.0318 14.7487 47.6258C14.6918 47.25 14.6475 46.8704 14.6158 46.4873C14.5764 46.0169 14.5567 45.5392 14.5567 45.0541C14.5515 41.8701 15.4438 38.7452 17.1372 36.0175C17.3823 36.2054 17.6214 36.4006 17.8545 36.6035C20.3426 38.7428 22.1466 41.5291 23.0532 44.6322C23.1419 44.9325 23.2207 45.2373 23.2896 45.5462C23.3586 45.8551 23.4231 46.1793 23.4833 46.5191Z" fill="url(#paint5_linear_234_54)"/>
<path d="M31.1266 44.449C29.6353 46.2443 27.7149 47.6592 25.5323 48.5717C25.4957 47.5091 25.3644 46.4514 25.14 45.4108C25.0711 45.0924 24.9928 44.7739 24.9053 44.4554C24.8215 44.1449 24.7296 43.8376 24.6262 43.5334C23.5412 40.275 21.5536 37.3688 18.8809 35.1322C20.8691 32.5449 23.5868 30.5712 26.706 29.449C26.9949 29.344 27.2871 29.2484 27.5842 29.1592C27.8813 29.0701 28.1653 29 28.4608 28.922C29.8293 28.5877 31.2353 28.4193 32.6467 28.4204H33.1014C33.2163 28.8201 33.3246 29.2166 33.4297 29.6242C34.9038 35.672 34.106 40.7962 31.1266 44.449Z" fill="url(#paint6_linear_234_54)"/>
<path d="M15.8041 48.3073C15.7242 47.9135 15.6597 47.518 15.6104 47.121C15.5251 46.4458 15.4823 45.7662 15.4824 45.086C15.4781 42.113 16.2998 39.1938 17.861 36.6353C17.6279 36.4326 17.3887 36.2372 17.1436 36.0493C16.9056 35.8646 16.661 35.6863 16.4131 35.5143C14.5993 38.3966 13.6416 41.7091 13.6455 45.086C13.6455 45.3646 13.6455 45.6433 13.6636 45.9204C13.6822 46.2919 13.7106 46.6635 13.7489 47.035C13.7916 47.4224 13.8463 47.8078 13.9131 48.1911C14.0149 48.7771 14.1462 49.3562 14.3071 49.9283C14.6354 49.9772 14.9637 50.0175 15.292 50.0494C15.6203 50.0828 15.9486 50.1083 16.2769 50.1242C16.2194 49.949 16.1653 49.7723 16.1127 49.5955C15.9945 49.1624 15.8911 48.7373 15.8041 48.3073ZM17.5753 50.1449H17.4949H17.0763H16.9433L17.2717 50.363L17.5835 50.1513C17.7247 50.1513 17.8659 50.1513 18.0071 50.1513C17.8605 50.1481 17.7165 50.146 17.5753 50.1449Z" fill="white"/>
<path fill-rule="evenodd" clip-rule="evenodd" d="M23.7104 49.2261C22.2401 49.6715 20.7223 49.9541 19.1863 50.0685H19.1223C18.9861 50.078 18.8498 50.0892 18.7119 50.0971C18.574 50.1051 18.4805 50.1099 18.3639 50.1131L18.1177 50.121H17.9995C17.8583 50.121 17.7172 50.121 17.576 50.121L17.2641 50.3328L16.9358 50.1146L16.5665 50.1019C16.4992 50.1019 16.4335 50.1019 16.3679 50.0924C16.3362 50.0939 16.3044 50.0939 16.2727 50.0924C15.9444 50.0764 15.6161 50.051 15.2878 50.0175C14.9595 49.9857 14.6312 49.9454 14.3029 49.8965C10.2483 49.3089 6.72065 47.5908 4.34044 44.9873C1.59909 42.0048 0.454948 38.035 0.937556 33.2022C2.63827 32.6642 4.41473 32.3855 6.20357 32.3758H6.33161C6.59754 32.3758 6.86182 32.3822 7.12447 32.3949C7.43307 32.406 7.74004 32.4283 8.04536 32.4586C11.0641 32.7444 13.9518 33.7973 16.4171 35.5111C16.665 35.6831 16.9095 35.8615 17.1476 36.0462C17.3856 36.2309 17.64 36.4299 17.8649 36.6322C20.353 38.7717 22.1572 41.5578 23.0636 44.6608C23.1523 44.9613 23.2311 45.2659 23.3 45.5748C23.3689 45.8838 23.4313 46.1975 23.4871 46.5159C23.6368 47.4121 23.7115 48.3183 23.7104 49.2261Z" fill="url(#paint7_linear_234_54)"/>
<path d="M17.4949 50.1465H17.0763H16.9434L17.2717 50.3646L17.5836 50.1529L17.4949 50.1465Z" fill="white"/>
<path d="M73.6438 22.0764V42.6975H46.3428V22.0764H50.2299V39.457H58.0649V22.0764H61.952V39.457H69.7567V22.0764H73.6438ZM79.1915 26.9666H82.9875V37.336L91.9462 26.9666H95.4082V42.6975H91.6121V32.328L82.6839 42.6975H79.1915V26.9666ZM116.063 26.9666V42.6975H112.297V30.0892H104.31V42.6975H100.514V26.9666H116.063ZM127.228 26.7898C129.617 26.7898 131.439 27.3495 132.695 28.469C133.97 29.5688 134.608 31.2381 134.608 33.4769V42.6975H131.024V40.7827C130.559 41.4701 129.891 42.0003 129.02 42.3734C128.17 42.7269 127.137 42.9037 125.922 42.9037C124.708 42.9037 123.645 42.7073 122.734 42.3145C121.823 41.9021 121.114 41.3424 120.608 40.6354C120.122 39.9088 119.879 39.0936 119.879 38.1903C119.879 36.7763 120.416 35.647 121.489 34.8026C122.582 33.9384 124.293 33.5064 126.621 33.5064H130.812V33.2707C130.812 32.1709 130.468 31.3264 129.779 30.7373C129.111 30.1481 128.109 29.8535 126.773 29.8535C125.862 29.8535 124.961 29.9909 124.07 30.2659C123.2 30.5409 122.461 30.9239 121.853 31.4148L120.365 28.7341C121.215 28.1056 122.238 27.6245 123.432 27.2906C124.627 26.9567 125.892 26.7898 127.228 26.7898ZM126.712 40.2229C127.664 40.2229 128.504 40.0167 129.233 39.6043C129.982 39.1723 130.508 38.5634 130.812 37.7779V35.9514H126.894C124.708 35.9514 123.615 36.6486 123.615 38.043C123.615 38.7107 123.888 39.2409 124.434 39.6338C124.981 40.0266 125.74 40.2229 126.712 40.2229ZM157.902 42.9921C155.756 42.9921 153.812 42.5403 152.071 41.637C150.35 40.7139 148.994 39.4472 148.002 37.8368C147.03 36.2264 146.544 34.4097 146.544 32.387C146.544 30.3642 147.04 28.5475 148.032 26.9371C149.024 25.3268 150.38 24.0698 152.101 23.1664C153.842 22.2433 155.786 21.7819 157.932 21.7819C159.673 21.7819 161.262 22.0764 162.7 22.6656C164.137 23.2548 165.353 24.1091 166.344 25.2285L163.793 27.5557C162.254 25.9454 160.362 25.1401 158.114 25.1401C156.657 25.1401 155.351 25.4543 154.197 26.0828C153.043 26.6916 152.142 27.5459 151.494 28.6457C150.846 29.7456 150.522 30.9925 150.522 32.387C150.522 33.7814 150.846 35.0284 151.494 36.1282C152.142 37.228 153.043 38.0921 154.197 38.7206C155.351 39.3293 156.657 39.6338 158.114 39.6338C160.362 39.6338 162.254 38.8188 163.793 37.1887L166.344 39.5454C165.353 40.6648 164.127 41.5191 162.67 42.1083C161.232 42.6975 159.643 42.9921 157.902 42.9921ZM184.89 26.9666L177.298 43.9642C176.589 45.6728 175.729 46.8707 174.716 47.5581C173.705 48.2651 172.48 48.6186 171.042 48.6186C170.233 48.6186 169.432 48.4909 168.642 48.2357C167.853 47.9804 167.206 47.6269 166.699 47.1752L168.217 44.465C168.581 44.7989 169.007 45.064 169.493 45.2604C170 45.4567 170.505 45.555 171.011 45.555C171.679 45.555 172.226 45.3881 172.651 45.0542C173.097 44.7202 173.501 44.1605 173.866 43.375L174.14 42.7564L167.063 26.9666H171.011L176.113 38.6027L181.246 26.9666H184.89Z" fill="#17E269"/>
<path d="M73.6438 22.0764V42.6975H46.3428V22.0764H50.2299V39.457H58.0649V22.0764H61.952V39.457H69.7567V22.0764H73.6438ZM79.1915 26.9666H82.9875V37.336L91.9462 26.9666H95.4082V42.6975H91.6121V32.328L82.6839 42.6975H79.1915V26.9666ZM116.063 26.9666V42.6975H112.297V30.0892H104.31V42.6975H100.514V26.9666H116.063ZM127.228 26.7898C129.617 26.7898 131.439 27.3495 132.695 28.469C133.97 29.5688 134.608 31.2381 134.608 33.4769V42.6975H131.024V40.7827C130.559 41.4701 129.891 42.0003 129.02 42.3734C128.17 42.7269 127.137 42.9037 125.922 42.9037C124.708 42.9037 123.645 42.7073 122.734 42.3145C121.823 41.9021 121.114 41.3424 120.608 40.6354C120.122 39.9088 119.879 39.0936 119.879 38.1903C119.879 36.7763 120.416 35.647 121.489 34.8026C122.582 33.9384 124.293 33.5064 126.621 33.5064H130.812V33.2707C130.812 32.1709 130.468 31.3264 129.779 30.7373C129.111 30.1481 128.109 29.8535 126.773 29.8535C125.862 29.8535 124.961 29.9909 124.07 30.2659C123.2 30.5409 122.461 30.9239 121.853 31.4148L120.365 28.7341C121.215 28.1056 122.238 27.6245 123.432 27.2906C124.627 26.9567 125.892 26.7898 127.228 26.7898ZM126.712 40.2229C127.664 40.2229 128.504 40.0167 129.233 39.6043C129.982 39.1723 130.508 38.5634 130.812 37.7779V35.9514H126.894C124.708 35.9514 123.615 36.6486 123.615 38.043C123.615 38.7107 123.888 39.2409 124.434 39.6338C124.981 40.0266 125.74 40.2229 126.712 40.2229ZM157.902 42.9921C155.756 42.9921 153.812 42.5403 152.071 41.637C150.35 40.7139 148.994 39.4472 148.002 37.8368C147.03 36.2264 146.544 34.4097 146.544 32.387C146.544 30.3642 147.04 28.5475 148.032 26.9371C149.024 25.3268 150.38 24.0698 152.101 23.1664C153.842 22.2433 155.786 21.7819 157.932 21.7819C159.673 21.7819 161.262 22.0764 162.7 22.6656C164.137 23.2548 165.353 24.1091 166.344 25.2285L163.793 27.5557C162.254 25.9454 160.362 25.1401 158.114 25.1401C156.657 25.1401 155.351 25.4543 154.197 26.0828C153.043 26.6916 152.142 27.5459 151.494 28.6457C150.846 29.7456 150.522 30.9925 150.522 32.387C150.522 33.7814 150.846 35.0284 151.494 36.1282C152.142 37.228 153.043 38.0921 154.197 38.7206C155.351 39.3293 156.657 39.6338 158.114 39.6338C160.362 39.6338 162.254 38.8188 163.793 37.1887L166.344 39.5454C165.353 40.6648 164.127 41.5191 162.67 42.1083C161.232 42.6975 159.643 42.9921 157.902 42.9921ZM184.89 26.9666L177.298 43.9642C176.589 45.6728 175.729 46.8707 174.716 47.5581C173.705 48.2651 172.48 48.6186 171.042 48.6186C170.233 48.6186 169.432 48.4909 168.642 48.2357C167.853 47.9804 167.206 47.6269 166.699 47.1752L168.217 44.465C168.581 44.7989 169.007 45.064 169.493 45.2604C170 45.4567 170.505 45.555 171.011 45.555C171.679 45.555 172.226 45.3881 172.651 45.0542C173.097 44.7202 173.501 44.1605 173.866 43.375L174.14 42.7564L167.063 26.9666H171.011L176.113 38.6027L181.246 26.9666H184.89Z" fill="url(#paint8_linear_234_54)"/>
<path d="M73.6438 22.0764V42.6975H46.3428V22.0764H50.2299V39.457H58.0649V22.0764H61.952V39.457H69.7567V22.0764H73.6438ZM79.1915 26.9666H82.9875V37.336L91.9462 26.9666H95.4082V42.6975H91.6121V32.328L82.6839 42.6975H79.1915V26.9666ZM116.063 26.9666V42.6975H112.297V30.0892H104.31V42.6975H100.514V26.9666H116.063ZM127.228 26.7898C129.617 26.7898 131.439 27.3495 132.695 28.469C133.97 29.5688 134.608 31.2381 134.608 33.4769V42.6975H131.024V40.7827C130.559 41.4701 129.891 42.0003 129.02 42.3734C128.17 42.7269 127.137 42.9037 125.922 42.9037C124.708 42.9037 123.645 42.7073 122.734 42.3145C121.823 41.9021 121.114 41.3424 120.608 40.6354C120.122 39.9088 119.879 39.0936 119.879 38.1903C119.879 36.7763 120.416 35.647 121.489 34.8026C122.582 33.9384 124.293 33.5064 126.621 33.5064H130.812V33.2707C130.812 32.1709 130.468 31.3264 129.779 30.7373C129.111 30.1481 128.109 29.8535 126.773 29.8535C125.862 29.8535 124.961 29.9909 124.07 30.2659C123.2 30.5409 122.461 30.9239 121.853 31.4148L120.365 28.7341C121.215 28.1056 122.238 27.6245 123.432 27.2906C124.627 26.9567 125.892 26.7898 127.228 26.7898ZM126.712 40.2229C127.664 40.2229 128.504 40.0167 129.233 39.6043C129.982 39.1723 130.508 38.5634 130.812 37.7779V35.9514H126.894C124.708 35.9514 123.615 36.6486 123.615 38.043C123.615 38.7107 123.888 39.2409 124.434 39.6338C124.981 40.0266 125.74 40.2229 126.712 40.2229ZM157.902 42.9921C155.756 42.9921 153.812 42.5403 152.071 41.637C150.35 40.7139 148.994 39.4472 148.002 37.8368C147.03 36.2264 146.544 34.4097 146.544 32.387C146.544 30.3642 147.04 28.5475 148.032 26.9371C149.024 25.3268 150.38 24.0698 152.101 23.1664C153.842 22.2433 155.786 21.7819 157.932 21.7819C159.673 21.7819 161.262 22.0764 162.7 22.6656C164.137 23.2548 165.353 24.1091 166.344 25.2285L163.793 27.5557C162.254 25.9454 160.362 25.1401 158.114 25.1401C156.657 25.1401 155.351 25.4543 154.197 26.0828C153.043 26.6916 152.142 27.5459 151.494 28.6457C150.846 29.7456 150.522 30.9925 150.522 32.387C150.522 33.7814 150.846 35.0284 151.494 36.1282C152.142 37.228 153.043 38.0921 154.197 38.7206C155.351 39.3293 156.657 39.6338 158.114 39.6338C160.362 39.6338 162.254 38.8188 163.793 37.1887L166.344 39.5454C165.353 40.6648 164.127 41.5191 162.67 42.1083C161.232 42.6975 159.643 42.9921 157.902 42.9921ZM184.89 26.9666L177.298 43.9642C176.589 45.6728 175.729 46.8707 174.716 47.5581C173.705 48.2651 172.48 48.6186 171.042 48.6186C170.233 48.6186 169.432 48.4909 168.642 48.2357C167.853 47.9804 167.206 47.6269 166.699 47.1752L168.217 44.465C168.581 44.7989 169.007 45.064 169.493 45.2604C170 45.4567 170.505 45.555 171.011 45.555C171.679 45.555 172.226 45.3881 172.651 45.0542C173.097 44.7202 173.501 44.1605 173.866 43.375L174.14 42.7564L167.063 26.9666H171.011L176.113 38.6027L181.246 26.9666H184.89Z" fill="url(#paint9_linear_234_54)"/>
<path d="M48.8519 13.0478C47.9239 13.0478 47.0835 12.8524 46.3305 12.4618C45.5864 12.0626 44.9997 11.5149 44.5708 10.8185C44.1505 10.1221 43.9404 9.33653 43.9404 8.4618C43.9404 7.58707 44.155 6.80149 44.5839 6.10511C45.0128 5.40872 45.5995 4.86519 46.3436 4.47454C47.0966 4.07538 47.9371 3.87581 48.865 3.87581C49.618 3.87581 50.3051 4.0032 50.9268 4.25797C51.5484 4.51275 52.0737 4.88218 52.5026 5.36625L51.3995 6.37262C50.7342 5.67624 49.9156 5.32804 48.9438 5.32804C48.3135 5.32804 47.7488 5.46391 47.2497 5.73568C46.7507 5.99895 46.3612 6.36837 46.081 6.84396C45.8008 7.31955 45.6608 7.85882 45.6608 8.4618C45.6608 9.06477 45.8008 9.60404 46.081 10.0796C46.3612 10.5552 46.7507 10.9289 47.2497 11.2006C47.7488 11.4639 48.3135 11.5956 48.9438 11.5956C49.9156 11.5956 50.7342 11.2431 51.3995 10.5382L52.5026 11.5573C52.0737 12.0414 51.544 12.4108 50.9136 12.6656C50.292 12.9204 49.6048 13.0478 48.8519 13.0478ZM56.4531 6.04141C57.4861 6.04141 58.2741 6.28345 58.8169 6.76753C59.3685 7.24312 59.6443 7.96498 59.6443 8.93313V12.9204H58.0947V12.0924C57.8932 12.3896 57.6043 12.6189 57.2279 12.7803C56.8602 12.9331 56.4137 13.0096 55.8884 13.0096C55.3632 13.0096 54.9035 12.9246 54.5096 12.7548C54.1156 12.5764 53.8091 12.3344 53.5903 12.0287C53.3802 11.7145 53.2751 11.362 53.2751 10.9714C53.2751 10.3599 53.5071 9.87156 53.9711 9.50638C54.4439 9.1327 55.1836 8.94587 56.1905 8.94587H58.0027V8.84396C58.0027 8.36837 57.8538 8.0032 57.5562 7.74842C57.2673 7.49364 56.834 7.36625 56.2561 7.36625C55.8622 7.36625 55.4725 7.4257 55.0874 7.5446C54.7108 7.6635 54.3914 7.82911 54.1287 8.04141L53.4852 6.88218C53.8529 6.61041 54.295 6.40235 54.8116 6.25797C55.328 6.1136 55.8753 6.04141 56.4531 6.04141ZM56.2299 11.8503C56.6412 11.8503 57.0047 11.7612 57.3199 11.5828C57.6437 11.396 57.8714 11.1327 58.0027 10.793V10.0032H56.3087C55.3632 10.0032 54.8904 10.3047 54.8904 10.9077C54.8904 11.1964 55.0086 11.4257 55.245 11.5956C55.4813 11.7654 55.8096 11.8503 56.2299 11.8503ZM61.6755 6.11785H63.317V8.88218H66.8496V6.11785H68.4911V12.9204H66.8496V10.2325H63.317V12.9204H61.6755V6.11785ZM73.3044 6.04141C74.3374 6.04141 75.1253 6.28345 75.6682 6.76753C76.2197 7.24312 76.4955 7.96498 76.4955 8.93313V12.9204H74.9459V12.0924C74.7445 12.3896 74.4556 12.6189 74.0792 12.7803C73.7115 12.9331 73.265 13.0096 72.7397 13.0096C72.2144 13.0096 71.7548 12.9246 71.3608 12.7548C70.9668 12.5764 70.6604 12.3344 70.4416 12.0287C70.2314 11.7145 70.1264 11.362 70.1264 10.9714C70.1264 10.3599 70.3583 9.87156 70.8224 9.50638C71.2951 9.1327 72.035 8.94587 73.0417 8.94587H74.854V8.84396C74.854 8.36837 74.7051 8.0032 74.4075 7.74842C74.1186 7.49364 73.6852 7.36625 73.1074 7.36625C72.7134 7.36625 72.3239 7.4257 71.9386 7.5446C71.5622 7.6635 71.2426 7.82911 70.98 8.04141L70.3365 6.88218C70.7042 6.61041 71.1463 6.40235 71.6629 6.25797C72.1794 6.1136 72.7266 6.04141 73.3044 6.04141ZM73.0811 11.8503C73.4927 11.8503 73.8559 11.7612 74.1711 11.5828C74.495 11.396 74.7227 11.1327 74.854 10.793V10.0032H73.1599C72.2144 10.0032 71.7416 10.3047 71.7416 10.9077C71.7416 11.1964 71.8598 11.4257 72.0962 11.5956C72.3326 11.7654 72.6609 11.8503 73.0811 11.8503ZM84.0817 7.46817H81.6259V12.9204H79.9844V7.46817H77.5155V6.11785H84.0817V7.46817ZM88.0901 13.0096C87.381 13.0096 86.7419 12.861 86.1728 12.5637C85.6037 12.2665 85.1572 11.8546 84.8333 11.328C84.5181 10.793 84.3605 10.19 84.3605 9.51912C84.3605 8.84821 84.5181 8.24949 84.8333 7.72294C85.1572 7.1964 85.6037 6.78452 86.1728 6.48727C86.7419 6.19003 87.381 6.04141 88.0901 6.04141C88.8079 6.04141 89.4514 6.19003 90.0205 6.48727C90.5896 6.78452 91.0317 7.1964 91.3469 7.72294C91.6708 8.24949 91.8328 8.84821 91.8328 9.51912C91.8328 10.19 91.6708 10.793 91.3469 11.328C91.0317 11.8546 90.5896 12.2665 90.0205 12.5637C89.4514 12.861 88.8079 13.0096 88.0901 13.0096ZM88.0901 11.6465C88.6942 11.6465 89.1932 11.4512 89.5872 11.0605C89.9811 10.6699 90.1781 10.1561 90.1781 9.51912C90.1781 8.88218 89.9811 8.36837 89.5872 7.97772C89.1932 7.58707 88.6942 7.39173 88.0901 7.39173C87.486 7.39173 86.987 7.58707 86.593 7.97772C86.2078 8.36837 86.0152 8.88218 86.0152 9.51912C86.0152 10.1561 86.2078 10.6699 86.593 11.0605C86.987 11.4512 87.486 11.6465 88.0901 11.6465ZM97.3416 6.04141C98.0244 6.04141 98.6328 6.18579 99.167 6.47454C99.7096 6.76328 100.134 7.17092 100.441 7.69747C100.747 8.22401 100.9 8.83122 100.9 9.51912C100.9 10.207 100.747 10.8185 100.441 11.3535C100.134 11.8801 99.7096 12.2877 99.167 12.5764C98.6328 12.8652 98.0244 13.0096 97.3416 13.0096C96.3961 13.0096 95.6475 12.7038 95.096 12.0924V15.3917H93.4544V6.11785H95.0172V7.00957C95.2885 6.68684 95.6213 6.44481 96.0152 6.28345C96.4179 6.1221 96.86 6.04141 97.3416 6.04141ZM97.1577 11.6465C97.7618 11.6465 98.2564 11.4512 98.6417 11.0605C99.0356 10.6699 99.2326 10.1561 99.2326 9.51912C99.2326 8.88218 99.0356 8.36837 98.6417 7.97772C98.2564 7.58707 97.7618 7.39173 97.1577 7.39173C96.7638 7.39173 96.4092 7.4809 96.094 7.65925C95.7788 7.82911 95.5293 8.07538 95.3455 8.3981C95.1616 8.72082 95.0697 9.09449 95.0697 9.51912C95.0697 9.94376 95.1616 10.3174 95.3455 10.6401C95.5293 10.9629 95.7788 11.2134 96.094 11.3917C96.4092 11.5616 96.7638 11.6465 97.1577 11.6465ZM102.534 6.11785H104.176V10.6019L108.05 6.11785H109.547V12.9204H107.905V8.43632L104.044 12.9204H102.534V6.11785ZM111.755 6.11785H113.396V10.6019L117.27 6.11785H118.767V12.9204H117.126V8.43632L113.265 12.9204H111.755V6.11785ZM115.156 5.3153C114.447 5.3153 113.904 5.15818 113.528 4.84396C113.16 4.52124 112.972 4.05415 112.963 3.44269H114.053C114.062 3.74842 114.158 3.99046 114.342 4.1688C114.534 4.34715 114.801 4.43632 115.143 4.43632C115.476 4.43632 115.738 4.34715 115.931 4.1688C116.132 3.99046 116.237 3.74842 116.246 3.44269H117.362C117.354 4.05415 117.161 4.52124 116.784 4.84396C116.408 5.15818 115.865 5.3153 115.156 5.3153Z" fill="black"/>
<path d="M48.8519 13.0478C47.9239 13.0478 47.0835 12.8524 46.3305 12.4618C45.5864 12.0626 44.9997 11.5149 44.5708 10.8185C44.1505 10.1221 43.9404 9.33653 43.9404 8.4618C43.9404 7.58707 44.155 6.80149 44.5839 6.10511C45.0128 5.40872 45.5995 4.86519 46.3436 4.47454C47.0966 4.07538 47.9371 3.87581 48.865 3.87581C49.618 3.87581 50.3051 4.0032 50.9268 4.25797C51.5484 4.51275 52.0737 4.88218 52.5026 5.36625L51.3995 6.37262C50.7342 5.67624 49.9156 5.32804 48.9438 5.32804C48.3135 5.32804 47.7488 5.46391 47.2497 5.73568C46.7507 5.99895 46.3612 6.36837 46.081 6.84396C45.8008 7.31955 45.6608 7.85882 45.6608 8.4618C45.6608 9.06477 45.8008 9.60404 46.081 10.0796C46.3612 10.5552 46.7507 10.9289 47.2497 11.2006C47.7488 11.4639 48.3135 11.5956 48.9438 11.5956C49.9156 11.5956 50.7342 11.2431 51.3995 10.5382L52.5026 11.5573C52.0737 12.0414 51.544 12.4108 50.9136 12.6656C50.292 12.9204 49.6048 13.0478 48.8519 13.0478ZM56.4531 6.04141C57.4861 6.04141 58.2741 6.28345 58.8169 6.76753C59.3685 7.24312 59.6443 7.96498 59.6443 8.93313V12.9204H58.0947V12.0924C57.8932 12.3896 57.6043 12.6189 57.2279 12.7803C56.8602 12.9331 56.4137 13.0096 55.8884 13.0096C55.3632 13.0096 54.9035 12.9246 54.5096 12.7548C54.1156 12.5764 53.8091 12.3344 53.5903 12.0287C53.3802 11.7145 53.2751 11.362 53.2751 10.9714C53.2751 10.3599 53.5071 9.87156 53.9711 9.50638C54.4439 9.1327 55.1836 8.94587 56.1905 8.94587H58.0027V8.84396C58.0027 8.36837 57.8538 8.0032 57.5562 7.74842C57.2673 7.49364 56.834 7.36625 56.2561 7.36625C55.8622 7.36625 55.4725 7.4257 55.0874 7.5446C54.7108 7.6635 54.3914 7.82911 54.1287 8.04141L53.4852 6.88218C53.8529 6.61041 54.295 6.40235 54.8116 6.25797C55.328 6.1136 55.8753 6.04141 56.4531 6.04141ZM56.2299 11.8503C56.6412 11.8503 57.0047 11.7612 57.3199 11.5828C57.6437 11.396 57.8714 11.1327 58.0027 10.793V10.0032H56.3087C55.3632 10.0032 54.8904 10.3047 54.8904 10.9077C54.8904 11.1964 55.0086 11.4257 55.245 11.5956C55.4813 11.7654 55.8096 11.8503 56.2299 11.8503ZM61.6755 6.11785H63.317V8.88218H66.8496V6.11785H68.4911V12.9204H66.8496V10.2325H63.317V12.9204H61.6755V6.11785ZM73.3044 6.04141C74.3374 6.04141 75.1253 6.28345 75.6682 6.76753C76.2197 7.24312 76.4955 7.96498 76.4955 8.93313V12.9204H74.9459V12.0924C74.7445 12.3896 74.4556 12.6189 74.0792 12.7803C73.7115 12.9331 73.265 13.0096 72.7397 13.0096C72.2144 13.0096 71.7548 12.9246 71.3608 12.7548C70.9668 12.5764 70.6604 12.3344 70.4416 12.0287C70.2314 11.7145 70.1264 11.362 70.1264 10.9714C70.1264 10.3599 70.3583 9.87156 70.8224 9.50638C71.2951 9.1327 72.035 8.94587 73.0417 8.94587H74.854V8.84396C74.854 8.36837 74.7051 8.0032 74.4075 7.74842C74.1186 7.49364 73.6852 7.36625 73.1074 7.36625C72.7134 7.36625 72.3239 7.4257 71.9386 7.5446C71.5622 7.6635 71.2426 7.82911 70.98 8.04141L70.3365 6.88218C70.7042 6.61041 71.1463 6.40235 71.6629 6.25797C72.1794 6.1136 72.7266 6.04141 73.3044 6.04141ZM73.0811 11.8503C73.4927 11.8503 73.8559 11.7612 74.1711 11.5828C74.495 11.396 74.7227 11.1327 74.854 10.793V10.0032H73.1599C72.2144 10.0032 71.7416 10.3047 71.7416 10.9077C71.7416 11.1964 71.8598 11.4257 72.0962 11.5956C72.3326 11.7654 72.6609 11.8503 73.0811 11.8503ZM84.0817 7.46817H81.6259V12.9204H79.9844V7.46817H77.5155V6.11785H84.0817V7.46817ZM88.0901 13.0096C87.381 13.0096 86.7419 12.861 86.1728 12.5637C85.6037 12.2665 85.1572 11.8546 84.8333 11.328C84.5181 10.793 84.3605 10.19 84.3605 9.51912C84.3605 8.84821 84.5181 8.24949 84.8333 7.72294C85.1572 7.1964 85.6037 6.78452 86.1728 6.48727C86.7419 6.19003 87.381 6.04141 88.0901 6.04141C88.8079 6.04141 89.4514 6.19003 90.0205 6.48727C90.5896 6.78452 91.0317 7.1964 91.3469 7.72294C91.6708 8.24949 91.8328 8.84821 91.8328 9.51912C91.8328 10.19 91.6708 10.793 91.3469 11.328C91.0317 11.8546 90.5896 12.2665 90.0205 12.5637C89.4514 12.861 88.8079 13.0096 88.0901 13.0096ZM88.0901 11.6465C88.6942 11.6465 89.1932 11.4512 89.5872 11.0605C89.9811 10.6699 90.1781 10.1561 90.1781 9.51912C90.1781 8.88218 89.9811 8.36837 89.5872 7.97772C89.1932 7.58707 88.6942 7.39173 88.0901 7.39173C87.486 7.39173 86.987 7.58707 86.593 7.97772C86.2078 8.36837 86.0152 8.88218 86.0152 9.51912C86.0152 10.1561 86.2078 10.6699 86.593 11.0605C86.987 11.4512 87.486 11.6465 88.0901 11.6465ZM97.3416 6.04141C98.0244 6.04141 98.6328 6.18579 99.167 6.47454C99.7096 6.76328 100.134 7.17092 100.441 7.69747C100.747 8.22401 100.9 8.83122 100.9 9.51912C100.9 10.207 100.747 10.8185 100.441 11.3535C100.134 11.8801 99.7096 12.2877 99.167 12.5764C98.6328 12.8652 98.0244 13.0096 97.3416 13.0096C96.3961 13.0096 95.6475 12.7038 95.096 12.0924V15.3917H93.4544V6.11785H95.0172V7.00957C95.2885 6.68684 95.6213 6.44481 96.0152 6.28345C96.4179 6.1221 96.86 6.04141 97.3416 6.04141ZM97.1577 11.6465C97.7618 11.6465 98.2564 11.4512 98.6417 11.0605C99.0356 10.6699 99.2326 10.1561 99.2326 9.51912C99.2326 8.88218 99.0356 8.36837 98.6417 7.97772C98.2564 7.58707 97.7618 7.39173 97.1577 7.39173C96.7638 7.39173 96.4092 7.4809 96.094 7.65925C95.7788 7.82911 95.5293 8.07538 95.3455 8.3981C95.1616 8.72082 95.0697 9.09449 95.0697 9.51912C95.0697 9.94376 95.1616 10.3174 95.3455 10.6401C95.5293 10.9629 95.7788 11.2134 96.094 11.3917C96.4092 11.5616 96.7638 11.6465 97.1577 11.6465ZM102.534 6.11785H104.176V10.6019L108.05 6.11785H109.547V12.9204H107.905V8.43632L104.044 12.9204H102.534V6.11785ZM111.755 6.11785H113.396V10.6019L117.27 6.11785H118.767V12.9204H117.126V8.43632L113.265 12.9204H111.755V6.11785ZM115.156 5.3153C114.447 5.3153 113.904 5.15818 113.528 4.84396C113.16 4.52124 112.972 4.05415 112.963 3.44269H114.053C114.062 3.74842 114.158 3.99046 114.342 4.1688C114.534 4.34715 114.801 4.43632 115.143 4.43632C115.476 4.43632 115.738 4.34715 115.931 4.1688C116.132 3.99046 116.237 3.74842 116.246 3.44269H117.362C117.354 4.05415 117.161 4.52124 116.784 4.84396C116.408 5.15818 115.865 5.3153 115.156 5.3153Z" fill="url(#paint10_linear_234_54)"/>
</g>
<defs>
<linearGradient id="paint0_linear_234_54" x1="5.66815" y1="22.6703" x2="5.67282" y2="22.6734" gradientUnits="userSpaceOnUse">
<stop stop-color="#00E1FF"/>
<stop offset="1" stop-color="#0F5F9E"/>
</linearGradient>
<linearGradient id="paint1_linear_234_54" x1="972.937" y1="6017.7" x2="8700.76" y2="9073.77" gradientUnits="userSpaceOnUse">
<stop stop-color="#00E1FF"/>
<stop offset="1" stop-color="#0F5F9E"/>
</linearGradient>
<linearGradient id="paint2_linear_234_54" x1="17.2668" y1="16.8025" x2="17.2668" y2="34.035" gradientUnits="userSpaceOnUse">
<stop stop-color="#00E25B"/>
<stop offset="0.05" stop-color="#00D957"/>
<stop offset="0.36" stop-color="#00A944"/>
<stop offset="0.63" stop-color="#008536"/>
<stop offset="0.86" stop-color="#00702D"/>
<stop offset="1" stop-color="#00682A"/>
</linearGradient>
<linearGradient id="paint3_linear_234_54" x1="1517.17" y1="3411.18" x2="1517.17" y2="5199" gradientUnits="userSpaceOnUse">
<stop stop-color="#00E25B"/>
<stop offset="0.05" stop-color="#00D957"/>
<stop offset="0.36" stop-color="#00A944"/>
<stop offset="0.63" stop-color="#008536"/>
<stop offset="0.86" stop-color="#00702D"/>
<stop offset="1" stop-color="#00682A"/>
</linearGradient>
<linearGradient id="paint4_linear_234_54" x1="1419.08" y1="2782.47" x2="1419.08" y2="4251.82" gradientUnits="userSpaceOnUse">
<stop stop-color="#00E25B"/>
<stop offset="0.05" stop-color="#00D957"/>
<stop offset="0.36" stop-color="#00A944"/>
<stop offset="0.63" stop-color="#008536"/>
<stop offset="0.86" stop-color="#00702D"/>
<stop offset="1" stop-color="#00682A"/>
</linearGradient>
<linearGradient id="paint5_linear_234_54" x1="22.4229" y1="40.3328" x2="14.8311" y2="49.6605" gradientUnits="userSpaceOnUse">
<stop stop-color="#00AF47"/>
<stop offset="0.21" stop-color="#00AA45"/>
<stop offset="0.48" stop-color="#009A3E"/>
<stop offset="0.78" stop-color="#008034"/>
<stop offset="1" stop-color="#00682A"/>
</linearGradient>
<linearGradient id="paint6_linear_234_54" x1="3192.29" y1="3666.33" x2="1535.88" y2="5162.23" gradientUnits="userSpaceOnUse">
<stop stop-color="#00AF47"/>
<stop offset="0.253992" stop-color="#00AA45"/>
<stop offset="0.493579" stop-color="#009A3E"/>
<stop offset="0.759209" stop-color="#008034"/>
<stop offset="1" stop-color="#00682A"/>
</linearGradient>
<linearGradient id="paint7_linear_234_54" x1="-0.00960401" y1="34.793" x2="23.8533" y2="48.9964" gradientUnits="userSpaceOnUse">
<stop stop-color="#00EA5F"/>
<stop offset="0.2" stop-color="#00E55D"/>
<stop offset="0.45" stop-color="#00D556"/>
<stop offset="0.73" stop-color="#00BB4C"/>
<stop offset="1" stop-color="#009B3F"/>
</linearGradient>
<linearGradient id="paint8_linear_234_54" x1="31.5421" y1="12.5477" x2="199.704" y2="55.5085" gradientUnits="userSpaceOnUse">
<stop stop-color="#00EA5F"/>
<stop offset="0.57821" stop-color="#00CD53"/>
<stop offset="0.835143" stop-color="#009B3F"/>
</linearGradient>
<linearGradient id="paint9_linear_234_54" x1="43.3363" y1="32.2212" x2="180.251" y2="32.2212" gradientUnits="userSpaceOnUse">
<stop stop-color="#00E1FF"/>
<stop offset="0.19149" stop-color="#03C8EC"/>
<stop offset="0.35816" stop-color="#05B2DC"/>
<stop offset="0.535247" stop-color="#089BCB"/>
<stop offset="0.738375" stop-color="#0B81B7"/>
<stop offset="1" stop-color="#0F5F9E"/>
</linearGradient>
<linearGradient id="paint10_linear_234_54" x1="43.3363" y1="8.31699" x2="117.426" y2="8.31699" gradientUnits="userSpaceOnUse">
<stop stop-color="#00E1FF"/>
<stop offset="0.19149" stop-color="#03C8EC"/>
<stop offset="0.35816" stop-color="#05B2DC"/>
<stop offset="0.535247" stop-color="#089BCB"/>
<stop offset="0.738375" stop-color="#0B81B7"/>
<stop offset="1" stop-color="#0F5F9E"/>
</linearGradient>
<clipPath id="clip0_234_54">
<rect width="185" height="50" fill="white" transform="translate(0 0.5)"/>
</clipPath>
</defs>
</svg>
