<svg width="35" height="51" viewBox="0 0 35 51" fill="none" xmlns="http://www.w3.org/2000/svg">
<path fill-rule="evenodd" clip-rule="evenodd" d="M5.67594 22.6672L5.66504 22.6765C5.66504 22.6765 5.67282 22.6672 5.67594 22.6672Z" fill="url(#paint0_linear_160_20)"/>
<path fill-rule="evenodd" clip-rule="evenodd" d="M5.69117 22.6513C5.6979 22.6465 5.70504 22.6422 5.71251 22.6385C5.71251 22.6385 5.71251 22.6274 5.72072 22.6226L5.69117 22.6513ZM5.69117 22.6513C5.6979 22.6465 5.70504 22.6422 5.71251 22.6385C5.71251 22.6385 5.71251 22.6274 5.72072 22.6226L5.69117 22.6513ZM5.69117 22.6513C5.6979 22.6465 5.70504 22.6422 5.71251 22.6385C5.71251 22.6385 5.71251 22.6274 5.72072 22.6226L5.69117 22.6513ZM5.69117 22.6513C5.6979 22.6465 5.70504 22.6422 5.71251 22.6385C5.71251 22.6385 5.71251 22.6274 5.72072 22.6226L5.69117 22.6513ZM5.69117 22.6513C5.6979 22.6465 5.70504 22.6422 5.71251 22.6385C5.71251 22.6385 5.71251 22.6274 5.72072 22.6226L5.69117 22.6513ZM17.7137 16.8025C12.9951 20.207 9.68697 25.1358 8.38656 30.699C11.6514 31.0368 14.7712 32.1858 17.4445 34.035C19.6574 31.1699 22.6795 28.9889 26.1446 27.7564C24.4937 23.3866 21.5636 19.5796 17.7137 16.8025ZM5.69117 22.6513C5.6979 22.6465 5.70504 22.6422 5.71251 22.6385C5.71251 22.6385 5.71251 22.6274 5.72072 22.6226L5.69117 22.6513ZM5.69117 22.6513C5.6979 22.6465 5.70504 22.6422 5.71251 22.6385C5.71251 22.6385 5.71251 22.6274 5.72072 22.6226L5.69117 22.6513ZM5.69117 22.6513C5.6979 22.6465 5.70504 22.6422 5.71251 22.6385C5.71251 22.6385 5.71251 22.6274 5.72072 22.6226L5.69117 22.6513ZM5.69117 22.6513C5.6979 22.6465 5.70504 22.6422 5.71251 22.6385C5.71251 22.6385 5.71251 22.6274 5.72072 22.6226L5.69117 22.6513ZM5.69117 22.6513C5.6979 22.6465 5.70504 22.6422 5.71251 22.6385C5.71251 22.6385 5.71251 22.6274 5.72072 22.6226L5.69117 22.6513ZM5.69117 22.6513C5.6979 22.6465 5.70504 22.6422 5.71251 22.6385C5.71251 22.6385 5.71251 22.6274 5.72072 22.6226L5.69117 22.6513ZM5.69117 22.6513C5.6979 22.6465 5.70504 22.6422 5.71251 22.6385C5.71251 22.6385 5.71251 22.6274 5.72072 22.6226L5.69117 22.6513ZM30.8213 21.3025L17.2771 0.5L3.73283 21.3025C2.25708 23.8495 1.15223 26.5825 0.449778 29.4236C0.264832 30.1815 0.114907 30.9172 0 31.6306C2.03516 30.9416 4.17583 30.5917 6.33137 30.5955C6.39703 30.5955 6.46433 30.5955 6.52999 30.5955C7.9289 24.2731 11.7344 18.6949 17.1868 14.9745L17.7137 14.6147L18.2423 14.9745C22.6816 18.0013 26.0551 22.278 27.9059 27.2261C29.4608 26.8361 31.0605 26.6398 32.6664 26.6417C32.8732 26.6417 33.0817 26.6417 33.2918 26.6529C32.6367 24.8006 31.8098 23.0099 30.8213 21.3025ZM12.6644 12.6561C11.993 13.8264 11.3052 14.9443 10.6026 16.0334C9.90004 17.1226 9.18106 18.1752 8.38327 19.2691C7.9811 19.8217 7.56251 20.3838 7.11109 20.9618C6.87964 21.258 6.64326 21.5557 6.39539 21.8599C6.27227 22.0191 6.14095 22.1783 6.01127 22.328L5.81264 22.5685L5.76832 22.621V22.629C5.76023 22.6444 5.75032 22.6588 5.73878 22.672C5.73878 22.672 5.73878 22.672 5.72564 22.6863C5.70166 22.7123 5.67266 22.7333 5.64028 22.7484C5.62715 22.7484 5.62387 22.7373 5.62715 22.7357V22.7118V22.672L5.66327 22.5127C5.69774 22.4029 5.73221 22.2914 5.77653 22.1704C5.85861 21.9347 5.96366 21.6847 6.07365 21.4252C6.30182 20.8965 6.58252 20.328 6.89441 19.7404C7.53461 18.5223 8.30612 17.2341 9.16136 15.9188C10.0166 14.6035 10.949 13.2548 11.9224 11.9745C12.4017 11.3487 12.8843 10.7373 13.3702 10.164C13.8137 9.6301 14.2883 9.12131 14.7918 8.64013C14.0646 10.1497 13.362 11.4363 12.6644 12.6561ZM5.71251 22.6338C5.71251 22.6338 5.71251 22.6226 5.72072 22.6178L5.69117 22.6481C5.69784 22.6427 5.70498 22.6379 5.71251 22.6338ZM33.4297 29.6401C33.3328 29.2389 33.2245 28.844 33.1014 28.4363H32.6467C31.2355 28.4352 29.8293 28.6037 28.4608 28.9379C28.1653 29.0096 27.8731 29.0876 27.5842 29.1752C27.2953 29.2627 26.9949 29.3599 26.706 29.465C23.5869 30.5871 20.8692 32.5608 18.8808 35.1481C21.5537 37.3847 23.5411 40.2909 24.6262 43.5494C24.7296 43.8535 24.8215 44.1608 24.9052 44.4713C24.989 44.7819 25.0694 45.1083 25.14 45.4268C25.3644 46.4674 25.4957 47.525 25.5323 48.5876C27.7168 47.6707 29.6373 46.25 31.1266 44.4491C34.106 40.7962 34.9038 35.672 33.4297 29.6401ZM5.68789 22.6592C5.69462 22.6545 5.70176 22.6502 5.70923 22.6465C5.70923 22.6465 5.70923 22.6354 5.71744 22.6306L5.68789 22.6592ZM23.4837 46.5191C23.4311 46.2006 23.3688 45.8869 23.2965 45.578C23.2243 45.2691 23.1455 44.9645 23.0602 44.664C22.1535 41.561 20.3495 38.7748 17.8614 36.6354C17.6283 36.4326 17.3892 36.2373 17.1441 36.0494C16.9061 35.8647 16.6615 35.6863 16.4136 35.5143C13.9482 33.8005 11.0606 32.7476 8.04184 32.4618C7.73651 32.4315 7.42955 32.4092 7.12094 32.3981C6.8583 32.3854 6.59401 32.379 6.32808 32.379H6.20004C4.41121 32.3885 2.63473 32.6674 0.934028 33.2054C0.45142 38.0382 1.59064 42.008 4.34184 45.0112C6.72205 47.6147 10.2513 49.3328 14.3043 49.9204C14.6326 49.9693 14.9609 50.0096 15.2892 50.0414C15.6175 50.0748 15.9458 50.1003 16.2741 50.1162C16.3058 50.1178 16.3376 50.1178 16.3693 50.1162C16.435 50.1162 16.5006 50.1162 16.5679 50.1258L16.9373 50.1385L17.2656 50.3567L17.5775 50.1449C17.7186 50.1449 17.8598 50.1449 18.001 50.1449H18.1192L18.3654 50.1369C18.4819 50.1369 18.5985 50.1274 18.7134 50.121C18.8283 50.1147 18.9875 50.1019 19.1238 50.0924H19.1878C20.7238 49.978 22.2414 49.6954 23.7118 49.25C23.7125 48.3352 23.6362 47.4218 23.4837 46.5191ZM5.69117 22.6513C5.6979 22.6465 5.70504 22.6422 5.71251 22.6385C5.71251 22.6385 5.71251 22.6274 5.72072 22.6226L5.69117 22.6513ZM5.69117 22.6513C5.6979 22.6465 5.70504 22.6422 5.71251 22.6385C5.71251 22.6385 5.71251 22.6274 5.72072 22.6226L5.69117 22.6513ZM5.69117 22.6513C5.6979 22.6465 5.70504 22.6422 5.71251 22.6385C5.71251 22.6385 5.71251 22.6274 5.72072 22.6226L5.69117 22.6513ZM5.69117 22.6513C5.6979 22.6465 5.70504 22.6422 5.71251 22.6385C5.71251 22.6385 5.71251 22.6274 5.72072 22.6226L5.69117 22.6513ZM5.69117 22.6513C5.6979 22.6465 5.70504 22.6422 5.71251 22.6385C5.71251 22.6385 5.71251 22.6274 5.72072 22.6226L5.69117 22.6513ZM5.69117 22.6513C5.6979 22.6465 5.70504 22.6422 5.71251 22.6385C5.71251 22.6385 5.71251 22.6274 5.72072 22.6226L5.69117 22.6513ZM5.69117 22.6513C5.6979 22.6465 5.70504 22.6422 5.71251 22.6385C5.71251 22.6385 5.71251 22.6274 5.72072 22.6226L5.69117 22.6513ZM5.69117 22.6513C5.6979 22.6465 5.70504 22.6422 5.71251 22.6385C5.71251 22.6385 5.71251 22.6274 5.72072 22.6226L5.69117 22.6513ZM5.69117 22.6513C5.6979 22.6465 5.70504 22.6422 5.71251 22.6385C5.71251 22.6385 5.71251 22.6274 5.72072 22.6226L5.69117 22.6513Z" fill="url(#paint1_linear_160_20)"/>
<path fill-rule="evenodd" clip-rule="evenodd" d="M13.3702 10.164C12.8778 10.7373 12.4017 11.3487 11.9224 11.9745C10.949 13.2484 10.0281 14.5828 9.15969 15.9188C8.29133 17.2548 7.53294 18.5271 6.89275 19.7404C6.58414 20.328 6.30344 20.8965 6.07198 21.4252C5.962 21.6847 5.85694 21.9347 5.77487 22.1704C5.73055 22.2914 5.69607 22.4029 5.6616 22.5127L5.62549 22.672V22.7118V22.7357C5.62549 22.7357 5.62549 22.75 5.63862 22.7484C5.67099 22.7333 5.7 22.7123 5.72398 22.6863C5.73547 22.6767 5.73219 22.6767 5.73711 22.672C5.74865 22.6588 5.75857 22.6444 5.76666 22.629V22.621L5.81098 22.5685L6.00961 22.328C6.13929 22.1688 6.27061 22.0095 6.39372 21.8599C6.64159 21.5557 6.87797 21.258 7.10943 20.9618C7.56085 20.3822 7.97944 19.8217 8.38161 19.2691C9.17939 18.1799 9.90823 17.1099 10.601 16.0334C11.2937 14.957 11.9913 13.8264 12.6627 12.6561C13.3604 11.4363 14.0629 10.1497 14.7967 8.64014C14.2915 9.12117 13.8152 9.62998 13.3702 10.164ZM5.71249 22.6338C5.70502 22.6374 5.69788 22.6417 5.69115 22.6465L5.7207 22.6162C5.7207 22.6162 5.71577 22.6338 5.71249 22.6338Z" fill="white"/>
<path d="M5.72007 22.621L5.71197 22.6369C5.7046 22.6406 5.69756 22.6449 5.69092 22.6497L5.72007 22.621Z" fill="white"/>
<path fill-rule="evenodd" clip-rule="evenodd" d="M26.1463 27.7563C22.6812 28.9888 19.659 31.1699 17.4462 34.035C14.7728 32.1858 11.653 31.0368 8.38818 30.699C9.6886 25.1358 12.9968 20.207 17.7154 16.8025C21.5651 19.5796 24.4954 23.3866 26.1463 27.7563Z" fill="url(#paint2_linear_160_20)"/>
<path fill-rule="evenodd" clip-rule="evenodd" d="M23.0602 44.6592C23.1488 44.9597 23.2276 45.2643 23.2965 45.5732C21.5844 46.6544 19.5342 47.7213 17.2639 49.2691C16.7616 48.9272 16.2751 48.6087 15.8046 48.3137C15.4456 48.0823 15.096 47.8619 14.7556 47.6528C14.4093 47.4363 14.0744 47.2309 13.7494 47.0302C9.3501 44.3232 6.85498 42.7102 6.85498 35.9649C6.8547 34.772 6.94302 33.5804 7.11927 32.3997C7.42787 32.4108 7.73484 32.4331 8.04016 32.4634C11.0589 32.7492 13.9466 33.802 16.4119 35.5159C16.6598 35.6879 16.9044 35.8662 17.1425 36.0509C17.3805 36.2356 17.6349 36.4347 17.8598 36.6369C20.3474 38.7745 22.1519 41.5583 23.0602 44.6592Z" fill="url(#paint3_linear_160_20)"/>
<path fill-rule="evenodd" clip-rule="evenodd" d="M28.5626 35.9586C28.5626 40.465 27.1903 42.6783 24.9004 44.4586C24.8167 44.1481 24.7247 43.8408 24.6213 43.5366C23.5364 40.2782 21.5489 37.372 18.876 35.1353C20.8644 32.5481 23.5821 30.5744 26.7011 29.4522C26.99 29.3471 27.2822 29.2516 27.5794 29.1624C28.2312 31.3724 28.5621 33.6599 28.5626 35.9586Z" fill="url(#paint4_linear_160_20)"/>
<path d="M23.2966 45.5733C23.2276 45.2643 23.1488 44.9596 23.0602 44.6592C22.3691 45.1051 21.6025 45.5541 20.7621 46.043C19.7 46.664 18.5132 47.3583 17.2623 48.1863C16.6878 47.8041 16.1346 47.4506 15.6077 47.121C15.2663 46.9086 14.9379 46.7043 14.6228 46.508L14.3946 46.3599L13.6641 45.9092C9.74416 43.4745 7.77925 41.9284 7.77925 35.9522C7.7792 34.7798 7.86809 33.6088 8.04518 32.4491C7.73985 32.4188 7.43289 32.3965 7.12428 32.3854C6.86164 32.3726 6.59735 32.3663 6.33143 32.3663H6.20339C6.0297 33.553 5.94248 34.7503 5.94238 35.9491C5.94238 43.2596 8.91355 45.0892 13.4097 47.8599L13.9136 48.1704C14.2567 48.3838 14.6129 48.6051 14.9823 48.8392C15.3516 49.0733 15.7292 49.3169 16.1182 49.5748C16.3218 49.7086 16.5276 49.8465 16.7354 49.9889L16.9422 50.1306L17.2705 50.3487L17.5824 50.1369L17.7991 49.9904C19.1928 49.035 20.5355 48.2532 21.7191 47.5605C22.3346 47.2006 22.9272 46.8551 23.4903 46.5064C23.4335 46.1963 23.3688 45.8854 23.2966 45.5733ZM28.469 28.9252C28.1735 28.9968 27.8814 29.0749 27.5924 29.1624C27.3035 29.25 27.0031 29.3471 26.7142 29.4522C27.3351 31.5685 27.6499 33.7583 27.6499 35.9586C27.6499 39.9284 26.5993 41.9124 24.6262 43.5366C24.7296 43.8408 24.8215 44.1481 24.9053 44.4586C24.989 44.7691 25.0694 45.0955 25.14 45.414C27.7861 43.4729 29.4868 41.0605 29.4868 35.9586C29.4871 33.5795 29.1445 31.2121 28.469 28.9252Z" fill="white"/>
<path d="M23.4838 46.5191C23.6343 47.414 23.7102 48.3193 23.7103 49.2261C22.2399 49.6715 20.7223 49.9541 19.1863 50.0685H19.1223C18.986 50.078 18.8498 50.0892 18.7119 50.0971C18.574 50.1051 18.4804 50.1099 18.3639 50.1131L18.1177 50.121H17.9995C17.8583 50.121 17.7171 50.121 17.5759 50.121L17.2641 50.3328L16.9358 50.1146L16.5664 50.1019C16.4991 50.1019 16.4334 50.1019 16.3678 50.0924C16.336 50.094 16.3043 50.094 16.2725 50.0924C15.9442 50.0764 15.6159 50.051 15.2876 50.0175C15.1694 49.6268 15.0655 49.2303 14.9757 48.828C14.8855 48.4315 14.8116 48.0318 14.7492 47.6258C14.6923 47.25 14.648 46.8704 14.6162 46.4873C14.5768 46.0169 14.5572 45.5392 14.5572 45.0541C14.552 41.8701 15.4443 38.7452 17.1377 36.0175C17.3827 36.2054 17.6219 36.4006 17.855 36.6035C20.3431 38.7428 22.1471 41.5291 23.0537 44.6322C23.1424 44.9325 23.2212 45.2373 23.2901 45.5462C23.359 45.8551 23.4236 46.1793 23.4838 46.5191Z" fill="url(#paint5_linear_160_20)"/>
<path d="M31.1266 44.449C29.6353 46.2443 27.7149 47.6592 25.5323 48.5717C25.4957 47.5091 25.3644 46.4514 25.14 45.4108C25.0711 45.0924 24.9928 44.7739 24.9053 44.4554C24.8215 44.1449 24.7296 43.8376 24.6262 43.5334C23.5412 40.275 21.5536 37.3688 18.8809 35.1322C20.8691 32.5449 23.5868 30.5712 26.706 29.449C26.9949 29.344 27.2871 29.2484 27.5842 29.1592C27.8813 29.0701 28.1653 29 28.4608 28.922C29.8293 28.5877 31.2353 28.4193 32.6467 28.4204H33.1014C33.2163 28.8201 33.3246 29.2166 33.4297 29.6242C34.9038 35.672 34.106 40.7962 31.1266 44.449Z" fill="url(#paint6_linear_160_20)"/>
<path d="M15.8046 48.3073C15.7247 47.9135 15.6602 47.518 15.6109 47.121C15.5256 46.4458 15.4828 45.7662 15.4829 45.086C15.4786 42.113 16.3003 39.1938 17.8614 36.6353C17.6284 36.4326 17.3892 36.2372 17.1441 36.0493C16.9061 35.8646 16.6615 35.6863 16.4136 35.5143C14.5998 38.3966 13.6421 41.7091 13.646 45.086C13.646 45.3646 13.646 45.6433 13.6641 45.9204C13.6827 46.2919 13.7111 46.6635 13.7494 47.035C13.7921 47.4224 13.8468 47.8078 13.9136 48.1911C14.0154 48.7771 14.1467 49.3562 14.3075 49.9283C14.6358 49.9772 14.9642 50.0175 15.2925 50.0494C15.6208 50.0828 15.9491 50.1083 16.2774 50.1242C16.2199 49.949 16.1658 49.7723 16.1132 49.5955C15.995 49.1624 15.8916 48.7373 15.8046 48.3073ZM17.5758 50.1449H17.4954H17.0768H16.9438L17.2721 50.363L17.584 50.1513C17.7252 50.1513 17.8664 50.1513 18.0075 50.1513C17.861 50.1481 17.717 50.146 17.5758 50.1449Z" fill="white"/>
<path fill-rule="evenodd" clip-rule="evenodd" d="M23.7099 49.2261C22.2396 49.6715 20.7218 49.9541 19.1858 50.0685H19.1218C18.9856 50.078 18.8493 50.0892 18.7114 50.0971C18.5736 50.1051 18.48 50.1099 18.3634 50.1131L18.1172 50.121H17.999C17.8579 50.121 17.7167 50.121 17.5755 50.121L17.2636 50.3328L16.9353 50.1146L16.566 50.1019C16.4987 50.1019 16.433 50.1019 16.3674 50.0924C16.3357 50.0939 16.3039 50.0939 16.2722 50.0924C15.9439 50.0764 15.6156 50.051 15.2873 50.0175C14.959 49.9857 14.6307 49.9454 14.3024 49.8965C10.2478 49.3089 6.72016 47.5908 4.33995 44.9873C1.5986 42.0048 0.454459 38.035 0.937068 33.2022C2.63779 32.6642 4.41425 32.3855 6.20308 32.3758H6.33112C6.59705 32.3758 6.86133 32.3822 7.12398 32.3949C7.43258 32.406 7.73955 32.4283 8.04487 32.4586C11.0636 32.7444 13.9513 33.7973 16.4166 35.5111C16.6645 35.6831 16.909 35.8615 17.1471 36.0462C17.3851 36.2309 17.6395 36.4299 17.8644 36.6322C20.3525 38.7717 22.1567 41.5578 23.0631 44.6608C23.1518 44.9613 23.2306 45.2659 23.2995 45.5748C23.3685 45.8838 23.4308 46.1975 23.4866 46.5159C23.6364 47.4121 23.711 48.3183 23.7099 49.2261Z" fill="url(#paint7_linear_160_20)"/>
<path d="M17.4954 50.1465H17.0768H16.9438L17.2722 50.3646L17.584 50.1529L17.4954 50.1465Z" fill="white"/>
<defs>
<linearGradient id="paint0_linear_160_20" x1="5.66815" y1="22.6703" x2="5.67282" y2="22.6734" gradientUnits="userSpaceOnUse">
<stop stop-color="#00E1FF"/>
<stop offset="1" stop-color="#0F5F9E"/>
</linearGradient>
<linearGradient id="paint1_linear_160_20" x1="972.937" y1="6017.7" x2="8700.76" y2="9073.77" gradientUnits="userSpaceOnUse">
<stop stop-color="#00E1FF"/>
<stop offset="1" stop-color="#0F5F9E"/>
</linearGradient>
<linearGradient id="paint2_linear_160_20" x1="17.2673" y1="16.8025" x2="17.2673" y2="34.035" gradientUnits="userSpaceOnUse">
<stop stop-color="#00E25B"/>
<stop offset="0.05" stop-color="#00D957"/>
<stop offset="0.36" stop-color="#00A944"/>
<stop offset="0.63" stop-color="#008536"/>
<stop offset="0.86" stop-color="#00702D"/>
<stop offset="1" stop-color="#00682A"/>
</linearGradient>
<linearGradient id="paint3_linear_160_20" x1="1517.17" y1="3411.18" x2="1517.17" y2="5199" gradientUnits="userSpaceOnUse">
<stop stop-color="#00E25B"/>
<stop offset="0.05" stop-color="#00D957"/>
<stop offset="0.36" stop-color="#00A944"/>
<stop offset="0.63" stop-color="#008536"/>
<stop offset="0.86" stop-color="#00702D"/>
<stop offset="1" stop-color="#00682A"/>
</linearGradient>
<linearGradient id="paint4_linear_160_20" x1="1419.08" y1="2782.47" x2="1419.08" y2="4251.82" gradientUnits="userSpaceOnUse">
<stop stop-color="#00E25B"/>
<stop offset="0.05" stop-color="#00D957"/>
<stop offset="0.36" stop-color="#00A944"/>
<stop offset="0.63" stop-color="#008536"/>
<stop offset="0.86" stop-color="#00702D"/>
<stop offset="1" stop-color="#00682A"/>
</linearGradient>
<linearGradient id="paint5_linear_160_20" x1="22.4234" y1="40.3328" x2="14.8316" y2="49.6605" gradientUnits="userSpaceOnUse">
<stop stop-color="#00AF47"/>
<stop offset="0.21" stop-color="#00AA45"/>
<stop offset="0.48" stop-color="#009A3E"/>
<stop offset="0.78" stop-color="#008034"/>
<stop offset="1" stop-color="#00682A"/>
</linearGradient>
<linearGradient id="paint6_linear_160_20" x1="3192.29" y1="3666.33" x2="1535.88" y2="5162.23" gradientUnits="userSpaceOnUse">
<stop stop-color="#00AF47"/>
<stop offset="0.253992" stop-color="#00AA45"/>
<stop offset="0.493579" stop-color="#009A3E"/>
<stop offset="0.759209" stop-color="#008034"/>
<stop offset="1" stop-color="#00682A"/>
</linearGradient>
<linearGradient id="paint7_linear_160_20" x1="-0.0100923" y1="34.793" x2="23.8528" y2="48.9964" gradientUnits="userSpaceOnUse">
<stop stop-color="#00EA5F"/>
<stop offset="0.2" stop-color="#00E55D"/>
<stop offset="0.45" stop-color="#00D556"/>
<stop offset="0.73" stop-color="#00BB4C"/>
<stop offset="1" stop-color="#009B3F"/>
</linearGradient>
</defs>
</svg>
