<svg width="68" height="69" viewBox="0 0 68 69" fill="none" xmlns="http://www.w3.org/2000/svg">
<g clip-path="url(#clip0_605_2409)">
<path d="M18.0838 59.1002L19.1883 59.6553C23.7909 62.4301 28.9454 63.7251 34.1002 63.7251C50.3005 63.7251 63.5553 50.4055 63.5553 34.126C63.5553 26.3563 60.4255 18.7715 54.9029 13.2216C49.38 7.67164 42.016 4.52686 34.1002 4.52686C17.8999 4.52686 4.64483 17.8465 4.82905 34.3111C4.82905 39.8608 6.48589 45.2258 9.24722 49.8505L9.98353 50.9606L7.03826 61.8753L18.0838 59.1002Z" fill="#00E676"/>
<path d="M58.0323 10.2617C51.773 3.78698 43.1206 0.271973 34.284 0.271973C15.5066 0.271973 0.410774 15.6265 0.594721 34.3109C0.594721 40.2308 2.25157 45.9658 5.01316 51.1455L0.226562 68.72L18.0837 64.0951C23.0543 66.8702 28.5769 68.1652 34.1001 68.1652C52.6936 68.1652 67.7894 52.8105 67.7894 34.1263C67.7894 25.0614 64.2915 16.5515 58.0325 10.2617H58.0323ZM34.284 62.4305C29.3135 62.4305 24.343 61.1357 20.1087 58.5457L19.0043 57.9907L8.32685 60.7655L11.0882 50.221L10.3519 49.1109C2.25157 35.9764 6.11763 18.5864 19.3724 10.4465C32.6272 2.30688 49.748 6.19185 57.8483 19.5115C65.9483 32.8311 62.0823 50.0356 48.8278 58.1755C44.5933 60.9504 39.4388 62.4302 34.284 62.4302V62.4305ZM50.4843 41.8962L48.4593 40.9712C48.4593 40.9712 45.5141 39.6762 43.673 38.7512C43.4888 38.7512 43.3049 38.5661 43.1206 38.5661C42.5683 38.5661 42.2001 38.7512 41.832 38.9363C41.832 38.9363 41.648 39.1212 39.0706 42.0811C38.8864 42.4511 38.5183 42.6362 38.1501 42.6362H37.9659C37.7819 42.6362 37.4138 42.4511 37.2296 42.2662L36.309 41.8962C34.284 40.9712 32.4432 39.8611 30.9703 38.3812C30.6022 38.0113 30.0498 37.6413 29.6817 37.2714C28.393 35.9764 27.1043 34.4963 26.184 32.8313L25.9998 32.4614C25.8159 32.2762 25.8159 32.0914 25.6316 31.7214C25.6316 31.3515 25.6316 30.9815 25.8159 30.7964C25.8159 30.7964 26.5522 29.8714 27.1043 29.3166C27.4727 28.9463 27.6566 28.3915 28.0248 28.0216C28.393 27.4665 28.5772 26.7266 28.393 26.1715C28.209 25.2465 25.9998 20.2516 25.4477 19.1418C25.0793 18.5867 24.7114 18.4018 24.159 18.2167H22.134C21.7656 18.2167 21.3977 18.4018 21.0293 18.4018L20.845 18.5867C20.4769 18.7718 20.1087 19.1418 19.7406 19.3266C19.3724 19.6968 19.1882 20.0665 18.82 20.4367C17.5314 22.1017 16.795 24.1366 16.795 26.1715C16.795 27.6514 17.1632 29.1315 17.7156 30.4264L17.8998 30.9815C19.5566 34.4963 21.7656 37.6413 24.7114 40.4161L25.4477 41.1561C25.9998 41.7111 26.5522 42.0811 26.9203 42.6359C30.7864 45.9661 35.2046 48.3709 40.1751 49.6659C40.7275 49.8508 41.4638 49.8508 42.0162 50.0359H43.857C44.7775 50.0359 45.882 49.6659 46.6185 49.296C47.1707 48.926 47.5388 48.926 47.907 48.556L48.2754 48.1858C48.6436 47.8159 49.0117 47.631 49.3799 47.2611C49.748 46.8911 50.1162 46.5211 50.3004 46.1509C50.6686 45.411 50.8525 44.486 51.0367 43.5612V42.2662C51.0367 42.2662 50.8525 42.0811 50.4843 41.8962Z" fill="white"/>
</g>
<defs>
<clipPath id="clip0_605_2409">
<rect width="67.5618" height="68.6878" fill="white" transform="translate(0.226562 0.271973)"/>
</clipPath>
</defs>
</svg>
