<svg width="28" height="31" viewBox="0 0 28 31" fill="none" xmlns="http://www.w3.org/2000/svg">
<path d="M23.4119 14.4797H4.6477C2.62349 14.4797 0.96875 16.2426 0.96875 18.3988C0.96875 20.555 2.62349 22.3179 4.6477 22.3179H23.4146C25.4388 22.3179 27.0935 20.555 27.0935 18.3988C27.0935 16.2426 25.4361 14.4797 23.4119 14.4797Z" fill="#C48E6A"/>
<path d="M14.0298 0.962097C8.05477 0.962097 2.52051 7.35144 2.52051 16.5488C2.52051 25.696 8.22367 30.2169 14.0298 30.2169C19.8359 30.2169 25.539 25.696 25.539 16.5488C25.539 7.35407 20.0048 0.962097 14.0298 0.962097Z" fill="#E0BB95"/>
<path d="M15.355 20.5287C15.3195 20.5141 15.2822 20.5044 15.2441 20.4997H12.8161C12.7792 20.505 12.7423 20.5129 12.7053 20.5287C12.4863 20.6185 12.3649 20.8454 12.4678 21.0882C12.5733 21.331 13.0563 22.0119 14.0301 22.0119C15.004 22.0119 15.4869 21.331 15.5925 21.0882C15.6981 20.8454 15.5767 20.6185 15.355 20.5287Z" fill="#C48E6A"/>
<path d="M16.9199 23.2785C15.8273 23.9277 12.2407 23.9277 11.1481 23.2785C10.52 22.9037 9.87866 23.4764 10.1399 24.0465C10.3959 24.606 12.3515 25.9097 14.0432 25.9097C15.7349 25.9097 17.6641 24.6086 17.9227 24.0465C18.1814 23.4764 17.548 22.9064 16.9199 23.2785Z" fill="#6D4C41"/>
<path d="M8.46188 19.0746C9.38305 19.0746 10.1298 18.3006 10.1298 17.3459C10.1298 16.3912 9.38305 15.6173 8.46188 15.6173C7.5407 15.6173 6.79395 16.3912 6.79395 17.3459C6.79395 18.3006 7.5407 19.0746 8.46188 19.0746Z" fill="#5D4037"/>
<path d="M19.5986 19.0746C20.5198 19.0746 21.2665 18.3007 21.2665 17.346C21.2665 16.3913 20.5198 15.6174 19.5986 15.6174C18.6774 15.6174 17.9307 16.3913 17.9307 17.346C17.9307 18.3007 18.6774 19.0746 19.5986 19.0746Z" fill="#5D4037"/>
<path d="M10.9392 14.2423C10.6225 13.8227 9.88623 13.2104 8.4611 13.2104C7.03596 13.2104 6.29965 13.8227 5.98295 14.2423C5.84308 14.4297 5.87739 14.6435 5.97503 14.7728C6.06476 14.8942 6.33132 15.0051 6.6269 14.9048C6.92248 14.8045 7.49781 14.5063 8.4611 14.501C9.42438 14.5089 10.0023 14.8045 10.2953 14.9048C10.5882 15.0051 10.8574 14.8942 10.9472 14.7728C11.0448 14.6435 11.0791 14.4297 10.9392 14.2423Z" fill="#AB872F"/>
<path d="M22.0789 14.2423C21.7622 13.8227 21.0259 13.2104 19.6007 13.2104C18.1756 13.2104 17.4393 13.8227 17.1226 14.2423C16.9827 14.4297 17.017 14.6434 17.1147 14.7728C17.2044 14.8942 17.471 15.005 17.7665 14.9047C18.0621 14.8044 18.6375 14.5062 19.6007 14.5009C20.564 14.5088 21.142 14.8044 21.4349 14.9047C21.7305 15.005 21.9971 14.8942 22.0868 14.7728C22.1818 14.6434 22.2188 14.4297 22.0789 14.2423Z" fill="#AB872F"/>
</svg>
