<svg width="30" height="30" viewBox="0 0 30 30" fill="none" xmlns="http://www.w3.org/2000/svg">
<path d="M25.6408 24.0516C25.2611 23.3578 25.7462 22.6547 26.5736 21.7828C27.8861 20.3977 29.3158 17.1891 27.9892 13.9289C27.9962 13.9102 27.7267 13.3617 27.7361 13.343L27.1876 13.3148C27.0119 13.2891 21.0095 13.2773 15.0001 13.2773C8.99077 13.2773 2.98842 13.2891 2.81264 13.3148C2.81264 13.3148 2.00405 13.9102 2.01108 13.9266C0.684518 17.1867 2.11421 20.3953 3.42671 21.7805C4.25405 22.6523 4.73921 23.3578 4.35952 24.0492C3.99155 24.7219 2.89233 24.8203 2.89233 24.8203C2.89233 24.8203 3.14546 25.5094 3.75717 25.8797C4.32202 26.2219 5.01577 26.3039 5.49624 26.3156C5.49624 26.3156 7.37124 28.9102 12.2744 28.9102H17.7306C22.6337 28.9102 24.5087 26.3156 24.5087 26.3156C24.9892 26.3039 25.683 26.2242 26.2478 25.8797C26.8595 25.5094 27.1126 24.8203 27.1126 24.8203C27.1126 24.8203 26.0111 24.7242 25.6408 24.0516Z" fill="#AB872F"/>
<path d="M14.9976 28.9125V26.032L23.7116 25.343L24.5038 26.318C24.5038 26.318 22.6288 28.9125 17.7257 28.9125H14.9976Z" fill="url(#paint0_radial_605_1958)"/>
<path d="M24.4828 25.0617C23.1773 23.0789 26.0718 22.3406 26.0718 22.3406L26.0742 22.343C25.5703 22.9688 25.3429 23.5149 25.6382 24.0516C26.0062 24.7242 27.1054 24.8227 27.1054 24.8227C27.1054 24.8227 25.6101 26.1539 24.4828 25.0617Z" fill="url(#paint1_radial_605_1958)"/>
<path d="M27.996 13.9266C29.2921 17.0836 27.928 20.3344 26.6507 21.7055C26.4749 21.893 25.7319 22.6242 25.5632 23.2055C25.5632 23.2055 22.6522 19.1484 21.785 16.7625C21.6093 16.282 21.4499 15.7851 21.4288 15.2742C21.4124 14.8898 21.4733 14.4328 21.6936 14.107C21.9655 13.7062 27.8413 13.5891 27.8413 13.5891C27.8413 13.5937 27.996 13.9266 27.996 13.9266Z" fill="url(#paint2_radial_605_1958)"/>
<path d="M2.01079 13.9266C0.717044 17.0836 2.07876 20.3344 3.35611 21.7055C3.53189 21.893 4.27486 22.6242 4.44361 23.2055C4.44361 23.2055 7.35454 19.1484 8.22173 16.7625C8.39751 16.282 8.55689 15.7851 8.57798 15.2742C8.59439 14.8898 8.53345 14.4328 8.31314 14.107C8.04126 13.7062 7.72486 13.8141 7.26548 13.8141C6.38657 13.8141 2.54283 13.5891 2.24517 13.5891C2.24517 13.5937 2.01079 13.9266 2.01079 13.9266Z" fill="url(#paint3_radial_605_1958)"/>
<path d="M15.0092 28.9125V26.032L6.29512 25.343L5.50293 26.318C5.50293 26.318 7.37793 28.9125 12.2811 28.9125H15.0092Z" fill="url(#paint4_radial_605_1958)"/>
<path d="M5.52402 25.0617C6.82949 23.0789 3.93496 22.3406 3.93496 22.3406L3.93262 22.343C4.43652 22.9688 4.66387 23.5149 4.36855 24.0516C4.00059 24.7242 2.90137 24.8227 2.90137 24.8227C2.90137 24.8227 4.39668 26.1539 5.52402 25.0617Z" fill="url(#paint5_radial_605_1958)"/>
<path d="M23.3321 15.0867H6.66807C4.87041 15.0867 3.40088 16.6524 3.40088 18.5672C3.40088 20.482 4.87041 22.0477 6.66807 22.0477H23.3345C25.1321 22.0477 26.6017 20.482 26.6017 18.5672C26.6017 16.6524 25.1298 15.0867 23.3321 15.0867Z" fill="#C48E6A"/>
<path d="M14.9999 3.08203C9.69365 3.08203 4.77881 8.75625 4.77881 16.9242C4.77881 25.0477 9.84365 29.0625 14.9999 29.0625C20.1562 29.0625 25.221 25.0477 25.221 16.9242C25.221 8.75859 20.3062 3.08203 14.9999 3.08203Z" fill="#E0BB95"/>
<path d="M16.1766 20.4586C16.1451 20.4456 16.112 20.437 16.0782 20.4328H13.9219C13.8891 20.4375 13.8563 20.4445 13.8235 20.4586C13.629 20.5383 13.5211 20.7398 13.6126 20.9555C13.7063 21.1711 14.1352 21.7758 15.0001 21.7758C15.8649 21.7758 16.2938 21.1711 16.3876 20.9555C16.4813 20.7398 16.3735 20.5383 16.1766 20.4586Z" fill="#C48E6A"/>
<path d="M17.5664 22.9008C16.5961 23.4774 13.411 23.4774 12.4407 22.9008C11.8828 22.568 11.3133 23.0766 11.5453 23.5828C11.7727 24.0797 13.5094 25.2375 15.0118 25.2375C16.5141 25.2375 18.2274 24.082 18.4571 23.5828C18.6868 23.0766 18.1243 22.5703 17.5664 22.9008Z" fill="#6D4C41"/>
<path d="M10.055 19.1672C10.8731 19.1672 11.5362 18.4799 11.5362 17.632C11.5362 16.7842 10.8731 16.0969 10.055 16.0969C9.23691 16.0969 8.57373 16.7842 8.57373 17.632C8.57373 18.4799 9.23691 19.1672 10.055 19.1672Z" fill="#5D4037"/>
<path d="M19.9456 19.1672C20.7637 19.1672 21.4269 18.4799 21.4269 17.632C21.4269 16.7842 20.7637 16.0969 19.9456 16.0969C19.1275 16.0969 18.4644 16.7842 18.4644 17.632C18.4644 18.4799 19.1275 19.1672 19.9456 19.1672Z" fill="#5D4037"/>
<path d="M12.2554 14.8758C11.9742 14.5031 11.3203 13.9594 10.0546 13.9594C8.78901 13.9594 8.13511 14.5031 7.85386 14.8758C7.72964 15.0422 7.76011 15.232 7.84682 15.3469C7.92651 15.4547 8.16323 15.5531 8.42573 15.4641C8.68823 15.375 9.19917 15.1102 10.0546 15.1055C10.9101 15.1125 11.4234 15.375 11.6835 15.4641C11.9437 15.5531 12.1828 15.4547 12.2624 15.3469C12.3492 15.232 12.3796 15.0422 12.2554 14.8758Z" fill="#AB872F"/>
<path d="M22.1485 14.8758C21.8672 14.5031 21.2133 13.9594 19.9477 13.9594C18.6821 13.9594 18.0282 14.5031 17.7469 14.8758C17.6227 15.0422 17.6532 15.232 17.7399 15.3469C17.8196 15.4547 18.0563 15.5531 18.3188 15.4641C18.5813 15.375 19.0922 15.1102 19.9477 15.1055C20.8032 15.1125 21.3165 15.375 21.5766 15.4641C21.8391 15.5531 22.0758 15.4547 22.1555 15.3469C22.2399 15.232 22.2727 15.0422 22.1485 14.8758Z" fill="#AB872F"/>
<path d="M27.2204 7.36171C26.4751 6.23437 24.8086 4.72499 23.311 4.62656C23.0719 3.18749 21.5297 1.96874 20.0391 1.49531C16.0055 0.217964 13.3782 1.64999 11.9696 2.41874C11.6766 2.57812 9.78287 3.62812 8.45865 2.87578C7.62896 2.40468 7.64537 1.12734 7.64537 1.12734C7.64537 1.12734 5.04615 2.1164 5.93443 4.87734C5.04146 4.91484 3.86958 5.28984 3.25083 6.54374C2.51255 8.03671 2.77505 9.28593 2.98833 9.88359C2.21958 10.5351 1.25396 11.925 1.91724 13.7273C2.41646 15.0844 4.40865 15.7078 4.40865 15.7078C4.26802 18.15 4.72271 19.6547 4.96412 20.2617C5.0063 20.3672 5.15865 20.3578 5.18443 20.2477C5.48443 19.0383 6.51568 14.8219 6.41255 14.0859C6.41255 14.0859 9.87193 13.3992 13.1719 10.9711C13.8446 10.4766 14.5711 10.0547 15.3446 9.74765C19.4883 8.09765 20.3555 10.9125 20.3555 10.9125C20.3555 10.9125 23.2266 10.3617 24.0938 14.3508C24.4196 15.8461 24.6399 18.2391 24.8251 19.9125C24.8391 20.0297 24.9985 20.0555 25.0454 19.9453C25.336 19.282 25.9149 17.9625 26.0532 16.6195C26.1024 16.1461 27.3774 15.5203 27.9235 13.4906C28.6594 10.7789 27.7571 8.17499 27.2204 7.36171Z" fill="#AB872F"/>
<path d="M26.0438 16.6289C26.0931 16.1555 27.3681 15.5297 27.9142 13.5C27.9728 13.2844 28.022 13.0641 28.0665 12.8437C28.5118 10.3758 27.7126 8.11171 27.2157 7.36171C26.5267 6.32109 25.0501 4.95468 23.6485 4.67578C23.5267 4.65937 23.4071 4.64531 23.2946 4.63828C23.2946 4.63828 23.3954 5.29218 23.1306 5.81484C22.7884 6.49218 22.0923 6.65156 22.0923 6.65156C25.7462 10.3055 25.486 13.3617 26.0438 16.6289Z" fill="url(#paint6_radial_605_1958)"/>
<path d="M12.851 1.95701C12.5182 2.11873 12.2229 2.28045 11.9674 2.41873C11.6744 2.57811 9.78069 3.62811 8.45647 2.87576C7.64085 2.4117 7.64085 1.1742 7.64319 1.12967C7.26819 1.60779 6.13382 5.02733 9.45022 5.25467C10.8799 5.35311 11.7635 4.10623 12.2838 3.0492C12.4737 2.66717 12.7713 2.10701 12.851 1.95701Z" fill="url(#paint7_radial_605_1958)"/>
<path d="M19.6222 1.37109C21.8535 1.97578 22.9433 3.11015 23.3066 4.6289C23.4144 5.07421 23.541 9.22734 15.6121 4.50703C12.6636 2.75156 13.4675 1.65234 13.8144 1.52812C15.1621 1.03828 17.1214 0.693745 19.6222 1.37109Z" fill="url(#paint8_radial_605_1958)"/>
<path d="M7.63385 1.12969C7.62916 1.13203 7.62447 1.13437 7.6151 1.13672H7.61276C7.32916 1.25625 5.09791 2.2875 5.93229 4.87266L8.3065 5.25469C6.20651 3.12891 7.64322 1.125 7.64322 1.125L7.63385 1.12969Z" fill="url(#paint9_radial_605_1958)"/>
<path d="M7.39932 5.11172L5.93213 4.875C5.87588 4.875 5.67901 4.89375 5.57354 4.90781C4.74854 5.02266 3.77354 5.44922 3.24854 6.54375C2.68135 7.72031 2.69776 8.73047 2.8501 9.40547C2.89463 9.63281 2.98604 9.88594 2.98604 9.88594C2.98604 9.88594 3.7126 9.19688 5.43995 9.15234L7.39932 5.11172Z" fill="url(#paint10_radial_605_1958)"/>
<path d="M2.91576 9.94218C2.19388 10.5844 1.21888 12.0141 1.93841 13.7859C2.47982 15.1242 4.40638 15.7055 4.40638 15.7055C4.40638 15.7125 4.79076 15.825 4.98998 15.825L5.43998 9.14764C4.51654 9.14764 3.6306 9.42421 3.05638 9.82264C3.06107 9.83671 2.91341 9.9328 2.91576 9.94218Z" fill="url(#paint11_radial_605_1958)"/>
<defs>
<radialGradient id="paint0_radial_605_1958" cx="0" cy="0" r="1" gradientUnits="userSpaceOnUse" gradientTransform="translate(19.4467 24.7535) scale(7.14117 3.50774)">
<stop offset="0.728" stop-color="#BFA055" stop-opacity="0"/>
<stop offset="1" stop-color="#BFA055"/>
</radialGradient>
<radialGradient id="paint1_radial_605_1958" cx="0" cy="0" r="1" gradientUnits="userSpaceOnUse" gradientTransform="translate(26.4804 23.691) rotate(154.924) scale(2.11021 1.56547)">
<stop offset="0.663" stop-color="#BFA055"/>
<stop offset="1" stop-color="#BFA055" stop-opacity="0"/>
</radialGradient>
<radialGradient id="paint2_radial_605_1958" cx="0" cy="0" r="1" gradientUnits="userSpaceOnUse" gradientTransform="translate(21.0114 17.7221) rotate(-94.2783) scale(9.26941 7.72545)">
<stop offset="0.725" stop-color="#BFA055" stop-opacity="0"/>
<stop offset="1" stop-color="#BFA055"/>
</radialGradient>
<radialGradient id="paint3_radial_605_1958" cx="0" cy="0" r="1" gradientUnits="userSpaceOnUse" gradientTransform="translate(8.99529 17.722) rotate(-85.7217) scale(9.26941 7.72545)">
<stop offset="0.725" stop-color="#BFA055" stop-opacity="0"/>
<stop offset="1" stop-color="#BFA055"/>
</radialGradient>
<radialGradient id="paint4_radial_605_1958" cx="0" cy="0" r="1" gradientUnits="userSpaceOnUse" gradientTransform="translate(10.5598 24.7535) rotate(180) scale(7.14117 3.50774)">
<stop offset="0.728" stop-color="#BFA055" stop-opacity="0"/>
<stop offset="1" stop-color="#BFA055"/>
</radialGradient>
<radialGradient id="paint5_radial_605_1958" cx="0" cy="0" r="1" gradientUnits="userSpaceOnUse" gradientTransform="translate(3.52648 23.6913) rotate(25.0761) scale(2.11021 1.56547)">
<stop offset="0.663" stop-color="#BFA055"/>
<stop offset="1" stop-color="#BFA055" stop-opacity="0"/>
</radialGradient>
<radialGradient id="paint6_radial_605_1958" cx="0" cy="0" r="1" gradientUnits="userSpaceOnUse" gradientTransform="translate(20.4943 12.8314) rotate(72.0851) scale(10.8652 8.06174)">
<stop offset="0.699" stop-color="#BFA055" stop-opacity="0"/>
<stop offset="1" stop-color="#BFA055"/>
</radialGradient>
<radialGradient id="paint7_radial_605_1958" cx="0" cy="0" r="1" gradientUnits="userSpaceOnUse" gradientTransform="translate(9.90183 0.98482) rotate(28.2026) scale(2.84889 3.37795)">
<stop offset="0.58" stop-color="#BFA055"/>
<stop offset="1" stop-color="#BFA055" stop-opacity="0"/>
</radialGradient>
<radialGradient id="paint8_radial_605_1958" cx="0" cy="0" r="1" gradientUnits="userSpaceOnUse" gradientTransform="translate(16.2689 6.15907) rotate(-157.19) scale(8.90992 5.00741)">
<stop offset="0.699" stop-color="#BFA055" stop-opacity="0"/>
<stop offset="1" stop-color="#BFA055"/>
</radialGradient>
<radialGradient id="paint9_radial_605_1958" cx="0" cy="0" r="1" gradientUnits="userSpaceOnUse" gradientTransform="translate(8.75815 3.58356) scale(2.61492 3.19883)">
<stop offset="0.702" stop-color="#BFA055" stop-opacity="0"/>
<stop offset="1" stop-color="#BFA055"/>
</radialGradient>
<radialGradient id="paint10_radial_605_1958" cx="0" cy="0" r="1" gradientUnits="userSpaceOnUse" gradientTransform="translate(8.39811 8.1993) rotate(-164.942) scale(4.90448 4.5897)">
<stop offset="0.66" stop-color="#BFA055" stop-opacity="0"/>
<stop offset="1" stop-color="#BFA055"/>
</radialGradient>
<radialGradient id="paint11_radial_605_1958" cx="0" cy="0" r="1" gradientUnits="userSpaceOnUse" gradientTransform="translate(7.23535 12.9349) rotate(7.83355) scale(5.14915 7.2354)">
<stop offset="0.598" stop-color="#BFA055" stop-opacity="0"/>
<stop offset="1" stop-color="#BFA055"/>
</radialGradient>
</defs>
</svg>
