<svg width="68" height="68" viewBox="0 0 68 68" fill="none" xmlns="http://www.w3.org/2000/svg">
<g clip-path="url(#clip0_605_2414)">
<path d="M34.069 0.397949C15.4123 0.397949 0.288086 15.5222 0.288086 34.1788C0.288086 52.8355 15.4123 67.9597 34.069 67.9597C52.7257 67.9597 67.8499 52.8355 67.8499 34.1788C67.8499 15.5222 52.7257 0.397949 34.069 0.397949ZM21.929 13.8163C22.625 13.7752 23.2541 14.1913 23.731 14.9296L28.3495 23.6882C28.8358 24.7261 28.5594 25.8374 27.834 26.5789L25.7186 28.6943C25.5881 28.8733 25.5021 29.0748 25.5001 29.2964C26.3113 32.4366 28.7721 35.3332 30.9433 37.3251C33.1144 39.3171 35.448 42.014 38.4772 42.6529C38.8516 42.7573 39.3102 42.7948 39.5782 42.5457L42.0359 40.0427C42.8842 39.3997 44.1115 39.088 45.0173 39.6138H45.0585L53.3923 44.5334C54.6156 45.3001 54.7423 46.7823 53.8665 47.6838L48.1265 53.3785C47.2788 54.2478 46.1527 54.5401 45.0586 54.5414C40.2196 54.3964 35.6473 52.0214 31.8918 49.5807C25.7274 45.0961 20.0728 39.5339 16.5229 32.8139C15.1614 29.996 13.5621 26.4006 13.7147 23.2554C13.7283 22.0722 14.0484 20.913 14.8817 20.1503L20.6218 14.4102C21.069 14.0297 21.5113 13.8409 21.929 13.8163Z" fill="#00589E"/>
</g>
<defs>
<clipPath id="clip0_605_2414">
<rect width="67.5618" height="67.5618" fill="white" transform="translate(0.288086 0.397949)"/>
</clipPath>
</defs>
</svg>
